<svg width="26" height="26" viewBox="0 0 26 26" fill="none" xmlns="http://www.w3.org/2000/svg">
<path d="M13 0C5.82106 0 0 5.821 0 13C0 20.179 5.82106 26 13 26C20.1795 26 26 20.1789 26 13C26 5.82113 20.1794 0 13 0ZM15.5719 24.6362C14.7273 24.8022 13.6765 24.8979 12.8219 24.9143C12.0124 24.9028 11.2061 24.8087 10.4157 24.6335C10.2738 24.597 10.132 24.56 9.99037 24.5224L8.46431 20.4328L9.69213 18H16.308L16.3436 18.0672L17.5524 20.4955L16.0763 24.5131C15.9091 24.5578 15.7409 24.5989 15.5719 24.6362ZM8.84863 1.83L12.4375 4.286V7.92019L8.00019 11.6744L4.9125 10.2675L4.65206 10.1488L3.25631 6.14762C4.63188 4.19737 6.57744 2.67687 8.84863 1.83ZM22.7227 6.12919L21.3207 10.1594L17.9463 11.6836L13.5 7.92019V4.286L17.0998 1.82256C19.3724 2.66525 21.3438 4.18206 22.7227 6.12919ZM1.134 14.0884L4.49375 11.181L7.58994 12.5934L7.62488 12.6094L8.85725 17.4398L7.58019 19.8479L3.21394 19.7907C2.06719 18.1432 1.32556 16.1941 1.134 14.0884ZM18.4199 19.8478L17.1428 17.4398L18.3773 12.6012L21.5021 11.1774L24.866 14.0884C24.6744 16.1941 23.9328 18.1432 22.7862 19.7906L18.4199 19.8478Z" fill="black"/>
</svg>
