<svg width="1440" height="412" viewBox="0 0 1440 412" fill="none" xmlns="http://www.w3.org/2000/svg">
<g clip-path="url(#clip0_1316_46422)">
<path d="M733.183 97.1113H659.977V139.667H733.183V97.1113Z" stroke="#828282" stroke-width="1.0898" stroke-miterlimit="10"/>
<path d="M659.977 133.773L665.843 139.667" stroke="#828282" stroke-width="1.0898" stroke-miterlimit="10"/>
<path d="M659.977 122.609L676.966 139.667" stroke="#828282" stroke-width="1.0898" stroke-miterlimit="10"/>
<path d="M660.004 111.465L688.078 139.668" stroke="#828282" stroke-width="1.0898" stroke-miterlimit="10"/>
<path d="M659.977 100.26L699.203 139.667" stroke="#828282" stroke-width="1.0898" stroke-miterlimit="10"/>
<path d="M667.964 97.1113L710.325 139.667" stroke="#828282" stroke-width="1.0898" stroke-miterlimit="10"/>
<path d="M679.078 97.1113L721.44 139.667" stroke="#828282" stroke-width="1.0898" stroke-miterlimit="10"/>
<path d="M690.201 97.1113L732.563 139.667" stroke="#828282" stroke-width="1.0898" stroke-miterlimit="10"/>
<path d="M701.328 97.1113L733.156 129.085" stroke="#828282" stroke-width="1.0898" stroke-miterlimit="10"/>
<path d="M712.438 97.1113L733.182 117.95" stroke="#828282" stroke-width="1.0898" stroke-miterlimit="10"/>
<path d="M723.562 97.1113L733.182 106.776" stroke="#828282" stroke-width="1.0898" stroke-miterlimit="10"/>
<path d="M733.184 130.102L723.662 139.667" stroke="#828282" stroke-width="1.0898" stroke-miterlimit="10"/>
<path d="M733.183 118.928L712.538 139.668" stroke="#828282" stroke-width="1.0898" stroke-miterlimit="10"/>
<path d="M733.184 107.762L701.425 139.666" stroke="#828282" stroke-width="1.0898" stroke-miterlimit="10"/>
<path d="M732.661 97.1113L690.3 139.667" stroke="#828282" stroke-width="1.0898" stroke-miterlimit="10"/>
<path d="M721.538 97.1113L679.177 139.667" stroke="#828282" stroke-width="1.0898" stroke-miterlimit="10"/>
<path d="M710.414 97.1113L668.062 139.667" stroke="#828282" stroke-width="1.0898" stroke-miterlimit="10"/>
<path d="M699.302 97.1113L659.977 136.617" stroke="#828282" stroke-width="1.0898" stroke-miterlimit="10"/>
<path d="M688.178 97.1113L659.977 125.442" stroke="#828282" stroke-width="1.0898" stroke-miterlimit="10"/>
<path d="M677.065 97.1113L659.977 114.278" stroke="#828282" stroke-width="1.0898" stroke-miterlimit="10"/>
<path d="M665.941 97.1113L659.977 103.103" stroke="#828282" stroke-width="1.0898" stroke-miterlimit="10"/>
<path d="M743.381 148.68H742.133C741.791 148.677 741.463 148.539 741.222 148.295C740.981 148.051 740.846 147.721 740.846 147.377V91.8992H652.408V147.377C652.408 147.723 652.271 148.054 652.028 148.298C651.785 148.543 651.455 148.68 651.111 148.68H649.765C649.421 148.68 649.091 148.543 648.848 148.298C648.604 148.054 648.468 147.723 648.468 147.377V91.2477C648.468 90.3863 648.808 89.5603 649.415 88.9512C650.021 88.3421 650.843 88 651.701 88H741.425C741.849 88 742.269 88.0841 742.661 88.2474C743.053 88.4107 743.408 88.6501 743.708 88.9518C744.007 89.2535 744.245 89.6116 744.406 90.0056C744.567 90.3996 744.65 90.8217 744.648 91.2477V147.377C744.651 147.718 744.519 148.047 744.282 148.291C744.044 148.535 743.72 148.675 743.381 148.68V148.68Z" stroke="#828282" stroke-width="1.0898" stroke-miterlimit="10"/>
<path d="M740.796 91.8984L733.181 97.1106" stroke="#828282" stroke-width="1.0898" stroke-miterlimit="10"/>
<path d="M659.976 97.1106L652.37 91.8984" stroke="#828282" stroke-width="1.0898" stroke-miterlimit="10"/>
<path d="M733.181 139.668L740.796 144.781" stroke="#828282" stroke-width="1.0898" stroke-miterlimit="10"/>
<path d="M659.976 139.668L652.37 144.781" stroke="#828282" stroke-width="1.0898" stroke-miterlimit="10"/>
<path d="M-536.399 -153.314C-554.345 -134.832 -540.138 -104.186 -530.484 -84.9224C-506.517 -37.0954 -466.024 5.60811 -423.839 44.8684C-352.329 110.29 -266.693 165.371 -174.587 212.31C-88.0053 255.416 3.84076 290.405 99.9691 317.892C105.02 319.323 107.552 320.022 112.627 321.441C206.33 347.035 301.335 368.476 398.339 384C472.172 395.359 546.459 403.307 621.199 407.843C703.154 412.277 785.284 412.451 867.257 408.363C940.917 404.167 1013.81 396.527 1085.94 385.443C1179.23 370.55 1271.41 349.353 1361.83 321.998C1452.77 293.671 1539.62 259.305 1622.37 218.901C1696.21 181.901 1766.45 140.558 1829.71 93.2397C1867.78 64.4866 1904.44 34.2309 1935.09 0.42543C1949.22 -15.158 1970.27 -36.137 1970.17 -56.5599C1969.65 -75.7049 1929.35 -62.0857 1919.81 -59.3997C1788.5 -19.1692 1657.64 21.227 1522.02 52.7251C1339.18 95.0445 1153.21 122.409 965.929 134.547C942.27 135.991 918.61 137.225 894.951 138.251H894.525C894.134 138.251 893.756 138.251 893.342 138.251H893.283C864.741 139.339 836.169 140.085 807.564 140.487C792.485 140.629 777.399 140.692 762.304 140.676C738.305 140.534 714.303 140.14 690.296 139.493C680.896 139.209 671.404 138.882 661.822 138.511C644.038 137.769 626.266 136.894 608.505 135.884C596.073 135.15 583.663 134.287 571.242 133.399C551.746 131.908 532.275 130.252 512.827 128.43C500.027 127.152 487.239 125.811 474.463 124.406C442.759 120.762 411.174 116.573 379.707 111.84C352.625 107.604 325.657 102.974 298.803 97.949C284.714 95.2157 270.589 92.435 256.618 89.5124C64.6692 49.2819 -115.367 -16.2702 -291.098 -90.2471C-342.924 -112.054 -394.726 -135.838 -449.711 -152.368C-473.725 -159.444 -516.833 -172.448 -536.399 -153.314Z" fill="#006716"/>
<path d="M-536.399 -153.314C-554.345 -134.832 -540.138 -104.186 -530.484 -84.9225C-506.517 -37.0955 -466.024 5.60803 -423.839 44.8683C-165.135 118.881 110.438 148.77 379.624 111.959C352.542 107.723 325.574 103.092 298.72 98.0673C284.631 95.2866 269.868 91.7369 256.488 89.6307C-8.40308 48.5955 -295.073 -29.4044 -536.399 -153.314Z" fill="#3F8D2A"/>
<path d="M-174.587 212.311C-88.0051 255.416 3.84087 290.405 99.9692 317.892C248.326 269.308 388.709 207.85 512.827 128.572C500.027 127.294 487.239 125.953 474.463 124.549C267.135 183.368 47.741 210.145 -174.587 212.311Z" fill="#3F8D2A"/>
<path d="M398.338 384.001C472.171 395.36 546.458 403.308 621.198 407.844C614.538 317.242 611.261 226.581 608.446 135.956C596.013 135.223 575.748 131.531 571.182 133.471C523.224 153.835 456.836 300.901 398.338 384.001Z" fill="#3F8D2A"/>
<path d="M661.763 138.629C722.094 232.106 791.996 321.513 867.198 408.411C940.857 404.214 1013.75 396.574 1085.88 385.491C944.895 312.721 786.72 172.423 690.237 139.612C684.724 137.742 671.345 138.996 661.763 138.629Z" fill="#3F8D2A"/>
<path d="M762.269 140.784C944.896 232.841 1150.64 289.4 1361.78 322.046C1452.71 293.719 1539.56 259.354 1622.31 218.95C1347.14 228.629 1033.1 170.259 807.529 140.595C795.262 138.985 777.363 140.796 762.269 140.784Z" fill="#3F8D2A"/>
<path d="M965.846 134.595C1274.72 149.386 1572.14 88.3182 1846.86 -11.4535C1887.97 -26.4098 1928.75 -41.9222 1970.08 -56.5117C1970.19 -36.0888 1949.13 -15.0979 1935.01 0.47366C1904.37 34.2791 1867.7 64.523 1829.65 93.2879C1757.67 107.593 1686.92 124.798 1614.35 137.435C1521.72 153.539 1427.44 164.472 1332.2 168.637C1185.61 175.062 1037.26 165.549 893.318 138.358H893.259C917.486 137.506 941.682 136.252 965.846 134.595Z" fill="#3F8D2A"/>
<path d="M109.386 58.7008C109.386 58.7008 107.434 40.7746 110.734 38.3962C114.035 36.0179 115.715 60.5704 115.715 60.5704C117.962 53.9441 126.077 37.7099 127.793 38.2187C129.508 38.7275 124.599 56.2278 124.599 56.2278C124.599 56.2278 142.059 40.6799 142.343 44.5846C142.627 48.4893 135.032 54.0506 135.032 54.0506C131.484 56.9259 129.721 58.3577 126.148 61.2211C122.126 62.2624 120.115 62.783 116.058 63.8006L109.386 58.7008Z" fill="#006716"/>
<path d="M397.19 118.538C397.19 118.538 404.738 101.972 409.174 100.493C413.61 99.0143 402.336 121.614 402.336 121.614C408.322 115.958 424.671 103.203 425.996 104.031C427.321 104.86 413.433 119.65 413.433 119.65C413.433 119.65 438.76 109.391 437.092 113.024C435.424 116.657 424.907 120.005 424.907 120.005C419.904 121.827 417.384 122.727 412.332 124.525C407.814 124.525 405.554 124.584 401.047 124.608C399.438 122.182 398.681 120.964 397.19 118.538Z" fill="#006716"/>
<path d="M1072.17 127.235C1072.17 127.235 1061.75 118.692 1064.02 116.124C1066.29 113.557 1077.16 123.626 1077.16 123.626C1077.16 123.626 1074.44 106.09 1080.71 108.244C1086.98 110.397 1086.9 121.993 1086.9 121.993C1086.9 121.993 1095.57 108.469 1098.23 110.847C1100.89 113.225 1098.23 115.899 1098.23 115.899C1095.38 119.627 1093.94 121.496 1091.03 125.212C1087.68 126.466 1086.01 127.081 1082.66 128.312C1078.44 127.85 1076.35 127.625 1072.17 127.235Z" fill="#006716"/>
<path d="M859.273 141.327C859.273 141.327 849.336 131.199 851.441 129.175C853.547 127.152 866.158 141.197 866.158 141.197C866.158 141.197 862.774 123.448 867.837 125.732C872.901 128.016 872.782 136.902 872.782 136.902C872.782 136.902 886.008 121.638 888.055 123.886C890.101 126.134 881.939 133.577 881.939 133.577C879.786 135.943 878.697 137.127 876.52 139.552C873.102 140.96 871.386 141.659 867.956 143.043C864.466 142.345 862.739 142.014 859.273 141.327Z" fill="#006716"/>
<path d="M843.91 278.455H598.161V420.693H843.91V278.455Z" stroke="white" stroke-width="2.8375" stroke-miterlimit="10"/>
<path d="M598.161 400.992L617.854 420.69" stroke="white" stroke-width="2.8375" stroke-miterlimit="10"/>
<path d="M598.161 363.68L655.195 420.694" stroke="white" stroke-width="2.8375" stroke-miterlimit="10"/>
<path d="M598.254 326.428L692.496 420.692" stroke="white" stroke-width="2.8375" stroke-miterlimit="10"/>
<path d="M598.161 288.979L729.843 420.691" stroke="white" stroke-width="2.8375" stroke-miterlimit="10"/>
<path d="M624.973 278.455L767.177 420.693" stroke="white" stroke-width="2.8375" stroke-miterlimit="10"/>
<path d="M662.282 278.455L804.487 420.693" stroke="white" stroke-width="2.8375" stroke-miterlimit="10"/>
<path d="M699.624 278.455L841.829 420.693" stroke="white" stroke-width="2.8375" stroke-miterlimit="10"/>
<path d="M736.971 278.455L843.814 385.323" stroke="white" stroke-width="2.8375" stroke-miterlimit="10"/>
<path d="M774.271 278.455L843.905 348.106" stroke="white" stroke-width="2.8375" stroke-miterlimit="10"/>
<path d="M811.611 278.455L843.905 310.756" stroke="white" stroke-width="2.8375" stroke-miterlimit="10"/>
<path d="M843.912 388.721L811.948 420.692" stroke="white" stroke-width="2.8375" stroke-miterlimit="10"/>
<path d="M843.907 351.371L774.603 420.692" stroke="white" stroke-width="2.8375" stroke-miterlimit="10"/>
<path d="M843.909 314.055L737.297 420.692" stroke="white" stroke-width="2.8375" stroke-miterlimit="10"/>
<path d="M842.16 278.455L699.956 420.693" stroke="white" stroke-width="2.8375" stroke-miterlimit="10"/>
<path d="M804.819 278.455L662.614 420.693" stroke="white" stroke-width="2.8375" stroke-miterlimit="10"/>
<path d="M767.476 278.455L625.305 420.693" stroke="white" stroke-width="2.8375" stroke-miterlimit="10"/>
<path d="M730.173 278.455L598.161 410.498" stroke="white" stroke-width="2.8375" stroke-miterlimit="10"/>
<path d="M692.832 278.455L598.161 373.148" stroke="white" stroke-width="2.8375" stroke-miterlimit="10"/>
<path d="M655.524 278.455L598.161 335.832" stroke="white" stroke-width="2.8375" stroke-miterlimit="10"/>
<path d="M618.184 278.455L598.161 298.483" stroke="white" stroke-width="2.8375" stroke-miterlimit="10"/>
<path d="M878.145 450.815H873.956C872.807 450.806 871.708 450.344 870.898 449.528C870.089 448.712 869.634 447.609 869.634 446.46V261.033H572.756V446.46C572.756 447.615 572.298 448.723 571.481 449.54C570.665 450.356 569.557 450.815 568.402 450.815H563.883C562.729 450.815 561.621 450.356 560.805 449.54C559.988 448.723 559.529 447.615 559.529 446.46V258.855C559.529 255.976 560.673 253.215 562.708 251.179C564.743 249.144 567.503 248 570.382 248H871.581C873.004 248 874.414 248.281 875.729 248.827C877.043 249.373 878.238 250.173 879.243 251.181C880.248 252.19 881.044 253.387 881.586 254.703C882.128 256.02 882.405 257.431 882.4 258.855V446.46C882.409 447.601 881.966 448.699 881.169 449.514C880.372 450.33 879.285 450.798 878.145 450.815V450.815Z" stroke="white" stroke-width="2.8375" stroke-miterlimit="10"/>
<path d="M869.468 261.031L843.903 278.452" stroke="white" stroke-width="2.8375" stroke-miterlimit="10"/>
<path d="M598.16 278.452L572.628 261.031" stroke="white" stroke-width="2.8375" stroke-miterlimit="10"/>
</g>
<defs>
<clipPath id="clip0_1316_46422">
<rect width="2515" height="411.771" fill="white" transform="translate(-545)"/>
</clipPath>
</defs>
</svg>
