<svg width="20" height="21" viewBox="0 0 20 21" fill="none" xmlns="http://www.w3.org/2000/svg">
<g clip-path="url(#clip0_1233_58239)">
<path d="M7.2283 4.87054H12.6731V6.08993H13.6378V4.09877C13.6378 3.88654 13.4642 3.71289 13.2519 3.71289H6.64947C6.43724 3.71289 6.26359 3.88654 6.26359 4.09877V6.08993H7.2283V4.87054ZM2.53983 16.4123C2.64016 16.9641 3.11865 17.3654 3.67818 17.3654H16.2232C16.7827 17.3654 17.2612 16.9641 17.3616 16.4123L18.253 9.93717H1.64844L2.53983 16.4123ZM9.9507 16.3301C8.35229 16.3301 7.05654 15.0344 7.05654 13.436C7.05654 11.8376 8.35229 10.5419 9.9507 10.5419C11.5491 10.5419 12.8448 11.8376 12.8448 13.436C12.8448 15.0344 11.5491 16.3301 9.9507 16.3301Z" fill="#1974EE"/>
<path d="M10.5164 11.6318H9.35876V12.8578H8.13281V14.0154H9.35876V15.2414H10.5164V14.0154H11.7424V12.8578H10.5164V11.6318Z" fill="#1974EE"/>
<path d="M2.54831 7.2493C2.54831 7.03321 2.72195 6.86342 2.93419 6.86342H4.00694C4.21918 6.86342 4.39282 7.03321 4.39282 7.2493V7.82813H15.4869V7.2493C15.4869 7.03321 15.6606 6.86342 15.8728 6.86342H16.9456C17.1578 6.86342 17.3315 7.03321 17.3315 7.2493V7.82813H19.122L18.7091 6.79782C18.5663 6.59716 18.3309 6.47754 18.0839 6.47754H1.79584C1.54887 6.47754 1.31348 6.59716 1.17071 6.79782L0.757812 7.82813H2.54831V7.2493ZM17.3315 8.79283C17.3315 9.00507 17.1578 9.17872 16.9456 9.17872H15.8728C15.6606 9.17872 15.4869 9.00507 15.4869 8.79283V8.21401H4.39282V8.79283C4.39282 9.00507 4.21918 9.17872 4.00694 9.17872H2.93419C2.72195 9.17872 2.54831 9.00507 2.54831 8.79283V8.21401H0.757812L1.17071 9.24046C1.31348 9.44497 1.54887 9.5646 1.79584 9.5646H18.0839C18.3309 9.5646 18.5663 9.44497 18.7091 9.24046L19.122 8.21401H17.3315V8.79283Z" fill="#1974EE"/>
</g>
<defs>
<clipPath id="clip0_1233_58239">
<rect width="19.2941" height="19.2941" fill="white" transform="translate(0.296875 0.892578)"/>
</clipPath>
</defs>
</svg>
