<svg width="462" height="462" viewBox="0 0 462 462" fill="none" xmlns="http://www.w3.org/2000/svg">
<g clip-path="url(#clip0_104_985)">
<path d="M457.997 0H3.99902C1.78988 0 -0.000976562 1.79086 -0.000976562 4V457.998C-0.000976562 460.207 1.78989 461.998 3.99903 461.998H457.997C460.206 461.998 461.997 460.207 461.997 457.998V4C461.997 1.79086 460.206 0 457.997 0Z" fill="#F9C900"/>
<path d="M-0.000976562 75.2157L75.2147 0H67.1685L-0.000976562 67.1697V75.2157Z" fill="#FFD91F"/>
<path d="M-0.000976562 163.326L163.325 0H155.315L-0.000976562 155.28V163.326Z" fill="#FFD91F"/>
<path d="M-0.000976562 251.437L251.436 0H243.426L-0.000976562 243.391V251.437Z" fill="#FFD91F"/>
<path d="M-0.000976562 339.548L339.583 0H331.537L-0.000976562 331.538V339.548Z" fill="#FFD91F"/>
<path d="M-0.000976562 427.659L427.694 0H419.648L-0.000976562 419.649V427.659Z" fill="#FFD91F"/>
<path d="M53.8067 461.997L461.997 53.7711V45.761L45.7607 461.997H53.8067Z" fill="#FFD91F"/>
<path d="M141.914 461.998L461.994 141.883V133.873L133.868 461.998H141.914Z" fill="#FFD91F"/>
<path d="M230.026 461.999L461.995 230.03V221.984L221.98 461.999H230.026Z" fill="#FFD91F"/>
<path d="M318.139 461.998L461.997 318.14V310.094L310.129 461.998H318.139Z" fill="#FFD91F"/>
<path d="M406.247 461.998L461.995 406.251V398.205L398.237 461.998H406.247Z" fill="#FFD91F"/>
<path d="M348.202 398.421V63.5066L113.791 63.5066L113.791 398.421H348.202Z" fill="#00BF84"/>
<path d="M348.202 93.9663H113.791V124.426H348.202V93.9663Z" fill="#04AD75"/>
<path d="M348.202 154.885H113.791V185.345H348.202V154.885Z" fill="#04AD75"/>
<path d="M348.202 215.77H113.791V246.23H348.202V215.77Z" fill="#04AD75"/>
<path d="M348.202 276.652H113.791V307.112H348.202V276.652Z" fill="#04AD75"/>
<path d="M348.202 337.573H113.791V368.033H348.202V337.573Z" fill="#04AD75"/>
<path d="M334.521 384.77V77.2263L127.516 77.2263L127.516 384.77H334.521Z" stroke="white" stroke-width="2.83765" stroke-miterlimit="10"/>
<path d="M280.67 384.772V343.895H181.353V384.772" stroke="white" stroke-width="2.83765" stroke-miterlimit="10"/>
<path d="M280.67 77.2263V118.103H181.353V77.2263" stroke="white" stroke-width="2.83765" stroke-miterlimit="10"/>
<path d="M334.516 231H127.512" stroke="white" stroke-width="2.83765" stroke-miterlimit="10"/>
<path d="M248.914 274.274C272.813 264.374 284.163 236.975 274.263 213.075C264.364 189.176 236.964 177.827 213.065 187.726C189.165 197.626 177.816 225.025 187.716 248.925C197.615 272.824 225.015 284.173 248.914 274.274Z" stroke="white" stroke-width="2.83765" stroke-miterlimit="10"/>
</g>
<defs>
<clipPath id="clip0_104_985">
<rect width="462" height="461.999" fill="white"/>
</clipPath>
</defs>
</svg>
