<svg width="462" height="462" viewBox="0 0 462 462" fill="none" xmlns="http://www.w3.org/2000/svg">
<g clip-path="url(#clip0_110_1223)">
<path d="M457.965 -0.000976562H4C1.79086 -0.000976562 0 1.78987 0 3.99901V457.999C0 460.208 1.79086 461.999 4 461.999H457.965C460.174 461.999 461.965 460.208 461.965 457.999V3.99902C461.965 1.78988 460.174 -0.000976562 457.965 -0.000976562Z" fill="#00BF84"/>
<path d="M461.966 75.215L386.75 -0.000976562H394.796L461.966 67.1689V75.215Z" fill="#04AD75"/>
<path d="M461.968 163.326L298.653 -0.000976562H306.699L461.968 155.28V163.326Z" fill="#04AD75"/>
<path d="M461.959 251.437L210.539 -0.000976562H218.585L461.959 243.427V251.437Z" fill="#04AD75"/>
<path d="M461.955 339.548L122.431 -0.000976562H130.477L461.955 331.538V339.548Z" fill="#04AD75"/>
<path d="M461.963 427.695L34.3342 -0.000976562H42.3437L461.963 419.649V427.695Z" fill="#04AD75"/>
<path d="M408.197 461.997L0 53.7691V45.759L416.243 461.997H408.197Z" fill="#04AD75"/>
<path d="M320.093 462L0 141.919V133.873L328.102 462H320.093Z" fill="#04AD75"/>
<path d="M231.952 461.998L0 230.029V221.983L239.998 461.998H231.952Z" fill="#04AD75"/>
<path d="M143.848 462L0 318.141V310.095L151.893 462H143.848Z" fill="#04AD75"/>
<path d="M55.7473 461.999L0 406.251V398.241L63.7933 461.999H55.7473Z" fill="#04AD75"/>
<path d="M247.469 247.428C288.595 206.299 288.595 139.616 247.469 98.4874C206.344 57.3587 139.666 57.3585 98.5402 98.4873C57.4145 139.616 57.4146 206.299 98.5403 247.427C139.666 288.556 206.344 288.556 247.469 247.428Z" fill="white"/>
<path d="M209.852 162.034L245.303 150.504L278.275 174.498C278.275 173.959 278.275 173.492 278.275 172.953C278.324 150.19 270.947 128.033 257.263 109.842L244.656 148.672L209.206 160.166L173.971 134.555V97.2705L206.979 73.3121C184.947 65.7449 161.02 65.7449 138.988 73.3121L171.996 97.2705V134.555L136.761 160.166L101.311 148.672L88.7043 109.842C75.0203 128.033 67.6434 150.19 67.6929 172.953C67.6929 173.492 67.6929 173.959 67.6929 174.498L100.665 150.504L136.115 162.034L149.584 203.485L127.674 233.622H86.8725C100.3 252.64 119.63 266.694 141.861 273.6L129.47 234.771L151.379 204.635H194.947L216.856 234.771L204.249 273.6C226.481 266.694 245.811 252.64 259.238 233.622H218.437L196.527 203.485L209.852 162.034Z" fill="#F9C900"/>
<path d="M272.855 302.838L77.1432 320.188C75.8245 320.248 74.572 320.784 73.6182 321.697C72.6644 322.61 72.0739 323.837 71.9556 325.152C71.8373 326.467 72.199 327.781 72.9745 328.849C73.75 329.917 74.8866 330.669 76.1734 330.963L330.071 399.822C334.122 400.922 338.391 400.933 342.447 399.854C346.504 398.776 350.204 396.646 353.174 393.68C356.143 390.713 358.278 387.016 359.361 382.96C360.444 378.905 360.438 374.635 359.343 370.583L346.449 322.702L272.855 302.838Z" fill="#16349B"/>
<path d="M98.9758 337.126L123.031 343.667L122.088 347.133C121.413 349.615 119.781 351.727 117.548 353.005C115.316 354.283 112.668 354.622 110.186 353.947L104.848 352.495C102.366 351.82 100.253 350.187 98.9754 347.955C97.6975 345.723 97.3587 343.074 98.0335 340.592L98.9758 337.126Z" fill="#F9C900"/>
<path d="M147.64 350.216L171.696 356.756L170.753 360.222C170.419 361.451 169.846 362.602 169.067 363.61C168.288 364.618 167.318 365.462 166.213 366.095C165.108 366.727 163.889 367.136 162.625 367.298C161.362 367.459 160.079 367.371 158.85 367.036L153.513 365.585C151.031 364.91 148.918 363.277 147.64 361.045C146.362 358.812 146.023 356.164 146.698 353.682L147.64 350.216Z" fill="#F9C900"/>
<path d="M196.339 363.37L220.393 369.911L219.451 373.377C218.776 375.859 217.143 377.971 214.911 379.249C212.679 380.527 210.03 380.866 207.548 380.191L202.21 378.74C199.728 378.065 197.616 376.431 196.338 374.199C195.06 371.967 194.722 369.318 195.396 366.836L196.339 363.37Z" fill="#F9C900"/>
<path d="M244.862 376.815L268.917 383.355L267.975 386.822C267.3 389.304 265.667 391.416 263.435 392.694C261.203 393.972 258.554 394.311 256.072 393.636L250.734 392.184C249.505 391.85 248.354 391.277 247.347 390.498C246.339 389.719 245.495 388.749 244.862 387.644C244.229 386.539 243.82 385.32 243.658 384.056C243.497 382.793 243.586 381.51 243.92 380.281L244.862 376.815Z" fill="#F9C900"/>
<path d="M293.494 390.011L317.48 396.532L316.538 399.999C315.863 402.481 314.23 404.593 311.998 405.871C309.766 407.149 307.117 407.488 304.635 406.813L299.297 405.361C296.815 404.686 294.703 403.053 293.425 400.821C292.147 398.589 291.808 395.94 292.483 393.458L293.425 389.992L293.494 390.011Z" fill="#F9C900"/>
<path d="M252.347 321.983C252.353 322.634 252.495 323.276 252.762 323.869C253.029 324.463 253.415 324.994 253.898 325.431C254.381 325.867 254.949 326.198 255.567 326.404C256.184 326.609 256.837 326.684 257.485 326.624C258.133 326.565 258.762 326.371 259.331 326.056C259.9 325.741 260.398 325.311 260.793 324.794C261.188 324.277 261.471 323.683 261.625 323.051C261.779 322.419 261.8 321.762 261.687 321.121L260.106 303.844L250.767 304.67L252.347 321.983Z" fill="white"/>
<path d="M224.657 325.432C224.785 326.665 225.39 327.799 226.343 328.591C227.297 329.384 228.523 329.771 229.758 329.671C230.995 329.552 232.135 328.949 232.929 327.994C233.723 327.038 234.106 325.808 233.996 324.57L232.308 306.287L222.969 307.113L224.657 325.432Z" fill="white"/>
<path d="M196.962 328.845C196.968 329.495 197.109 330.138 197.376 330.731C197.643 331.325 198.03 331.856 198.513 332.292C198.995 332.729 199.564 333.06 200.181 333.265C200.798 333.471 201.451 333.546 202.099 333.486C202.747 333.426 203.376 333.233 203.945 332.918C204.515 332.603 205.012 332.173 205.407 331.656C205.802 331.139 206.085 330.545 206.239 329.913C206.393 329.281 206.414 328.623 206.301 327.983L204.541 308.766L195.166 309.592L196.962 328.845Z" fill="white"/>
<path d="M169.269 332.292C169.275 332.943 169.416 333.585 169.683 334.179C169.95 334.772 170.338 335.304 170.82 335.74C171.303 336.176 171.871 336.507 172.488 336.713C173.106 336.918 173.759 336.994 174.407 336.934C175.055 336.874 175.683 336.681 176.253 336.365C176.822 336.05 177.32 335.621 177.715 335.104C178.109 334.586 178.393 333.993 178.547 333.361C178.701 332.728 178.722 332.071 178.609 331.43L176.741 311.208L167.402 312.034L169.269 332.292Z" fill="white"/>
<path d="M462.002 96.8037L272.863 302.839L346.457 322.847C386.75 300.698 425.367 275.631 462.002 247.846V96.8037Z" fill="#F9C900"/>
<path d="M440.416 263.721L367.433 199.748L272.863 302.838L346.457 322.845C378.884 304.955 410.256 285.215 440.416 263.721Z" fill="white"/>
<path d="M351.666 216.881L420.74 277.406L427.636 272.7L357.126 210.954L351.666 216.881Z" fill="#16349B"/>
</g>
<defs>
<clipPath id="clip0_110_1223">
<rect width="462" height="462" fill="white" transform="translate(0 -0.000976562)"/>
</clipPath>
</defs>
</svg>
