<svg width="24" height="24" viewBox="0 0 24 24" fill="none" xmlns="http://www.w3.org/2000/svg">
<path d="M10.4361 3.83984V4.31984C10.4361 5.35984 11.2825 6.20624 12.3225 6.20624C13.3625 6.20624 14.2089 5.35984 14.2089 4.31984V3.83984H16.4921V8.57424C16.4921 9.03984 16.8713 9.41904 17.3369 9.41904H17.8169V20.7998H6.82812V9.41904H7.30813C7.77373 9.41904 8.15133 9.03984 8.15133 8.57424V3.83984H10.4361Z" fill="#E1E6E9"/>
<path d="M9.79538 3.19995V3.67995C9.79538 4.71995 10.6418 5.56635 11.6818 5.56635C12.7218 5.56635 13.5682 4.71995 13.5682 3.67995V3.19995H15.8514V7.93435C15.8514 8.39995 16.2306 8.77915 16.6962 8.77915H17.1762V20.16H6.18738V8.77915H6.66738C7.13298 8.77915 7.51058 8.39995 7.51058 7.93435V3.19995H9.79538Z" fill="white"/>
<path d="M15.2134 7.77359V3.51855H13.8891C13.8891 4.82543 12.8297 5.88495 11.5227 5.88495C10.2157 5.88495 9.15629 4.82543 9.15629 3.51855H7.83213V7.77359C7.83213 8.12483 7.69261 8.46167 7.44425 8.71003C7.19589 8.95839 6.85904 9.09791 6.50781 9.09791V19.5186H16.5377V9.09791C16.1865 9.09791 15.8497 8.95839 15.6013 8.71003C15.3529 8.46167 15.2134 8.12483 15.2134 7.77359Z" fill="#1974EE"/>
<path d="M8.77165 10.9741H10.3195V14.7973H9.49901V11.7016H8.77165V10.9741ZM12.6931 14.8411C12.1645 14.8411 11.7689 14.6614 11.5064 14.3022C11.244 13.9432 11.1125 13.4637 11.1125 12.8638C11.1125 12.264 11.2438 11.7846 11.5064 11.4254C11.7689 11.0664 12.1645 10.8867 12.6931 10.8867C13.2219 10.8867 13.6176 11.0664 13.88 11.4254C14.1427 11.7846 14.2739 12.264 14.2739 12.8638C14.2739 13.4637 14.1427 13.9432 13.88 14.3022C13.6176 14.6614 13.2219 14.8411 12.6931 14.8411ZM12.1299 11.9422C12.0096 12.1757 11.9494 12.4838 11.9494 12.8666C11.9494 13.2494 12.0096 13.5578 12.1299 13.7909C12.2502 14.0243 12.4379 14.141 12.6931 14.141C12.9483 14.141 13.1363 14.0242 13.2566 13.7909C13.3769 13.5576 13.4369 13.2494 13.4369 12.8666C13.4369 12.4838 13.3769 12.1757 13.2566 11.9422C13.1361 11.709 12.9485 11.5922 12.6931 11.5922C12.4377 11.5922 12.2502 11.709 12.1299 11.9422ZM6.50781 17.8442H16.5377V18.4698H6.50781V17.8442ZM6.50781 18.7814H16.5377V18.9837H6.50781V18.7814Z" fill="white"/>
</svg>
