<svg width="73" height="32" viewBox="0 0 73 32" fill="none" xmlns="http://www.w3.org/2000/svg">
<g clip-path="url(#clip0_2598_20257)">
<path d="M0 0.240234H10.9575H11.5844V3.93193H4.11682V6.13497H10.915V9.83863H4.07426V15.1227H0V0.240234Z" fill="#006716"/>
<path d="M72.9992 0.239729L70.9292 4.00725C69.8535 5.95088 68.7663 7.89052 67.7022 9.84213C67.5817 10.0773 67.5167 10.3384 67.5127 10.6044C67.5127 12.0851 67.5127 13.5658 67.5127 15.0823H63.45V14.6074C63.45 13.2545 63.45 11.9015 63.45 10.5485C63.4511 10.3446 63.4046 10.1434 63.3146 9.96185C61.6741 6.99253 60.0297 4.02853 58.3814 1.06986C58.3388 0.990035 58.2808 0.922198 58.1492 0.730629V3.95936H53.9047V22.7172C53.9949 22.6549 54.0803 22.5855 54.1601 22.5096C55.6149 20.7562 57.071 19.0042 58.5284 17.2535C58.629 17.1297 58.7876 16.9701 58.9153 16.9661C60.3934 16.9661 61.8752 16.9661 63.4771 16.9661C63.067 17.453 62.7342 17.8561 62.3899 18.2512C61.0898 19.7638 59.7936 21.2804 58.4742 22.777C58.4213 22.8193 58.3779 22.873 58.3469 22.9342C58.3159 22.9955 58.2982 23.063 58.2949 23.132C58.2916 23.201 58.3028 23.2699 58.3277 23.334C58.3527 23.3981 58.3908 23.4559 58.4394 23.5034C60.1689 26.0776 61.883 28.6638 63.6048 31.25C63.6976 31.3857 63.7828 31.5293 63.9182 31.7449H62.5098C61.5657 31.7449 60.6255 31.7449 59.6814 31.7449C59.5164 31.7628 59.3499 31.7309 59.2022 31.6529C59.0545 31.575 58.932 31.4544 58.8496 31.3059C57.8436 29.7454 56.8066 28.2008 55.7774 26.6523C55.6652 26.4807 55.5491 26.3171 55.3905 26.0936C54.8914 26.6603 54.4077 27.1871 53.9512 27.7379C53.896 27.8768 53.8799 28.0289 53.9047 28.1769C53.9047 29.3383 53.9047 30.4997 53.9047 31.697H49.8421V3.97931H45.5898V0.239729H46.0928C51.4117 0.239729 56.7292 0.239729 62.0455 0.239729C62.1942 0.220408 62.3448 0.253717 62.4727 0.334194C62.6006 0.414671 62.6983 0.537546 62.7497 0.682726C63.5506 2.3829 64.3786 4.0751 65.1989 5.7673C65.2724 5.92295 65.3537 6.0746 65.4736 6.31007C65.5935 6.09855 65.6864 5.94689 65.7638 5.79124C66.6498 4.06313 67.5359 2.33502 68.4064 0.602913C68.4472 0.486481 68.5247 0.387475 68.6263 0.321661C68.728 0.255847 68.8481 0.227007 68.9675 0.239729C70.2791 0.259684 71.5946 0.239729 72.9992 0.239729Z" fill="#006716"/>
<path d="M6.79883 16.9383C8.02923 16.9383 9.23255 16.9383 10.4359 16.9383C11.9178 16.9623 13.4268 16.8305 14.8777 17.074C19.2847 17.8203 19.9966 22.3621 18.36 24.8685C17.3772 26.3651 15.934 27.0515 14.2354 27.1593C13.1133 27.2311 11.9835 27.1593 10.8073 27.1593V31.6612H6.79883V16.9383ZM10.8034 23.4397C11.7204 23.4397 12.6104 23.4397 13.5119 23.4397C13.7106 23.4237 13.9054 23.3738 14.0884 23.292C14.3552 23.2089 14.5894 23.0404 14.7571 22.8107C14.9247 22.5811 15.0171 22.3023 15.0209 22.0149C15.0047 21.7257 14.8948 21.4505 14.7089 21.2334C14.523 21.0163 14.2717 20.8698 13.9955 20.8176C12.9547 20.6938 11.8984 20.6898 10.8189 20.634L10.8034 23.4397Z" fill="#006716"/>
<path d="M34.6606 31.7165C33.1942 31.7165 31.7897 31.7165 30.3852 31.7165C30.3113 31.6974 30.2427 31.6613 30.1844 31.6108C30.1261 31.5603 30.0796 31.4969 30.0485 31.4252C29.1509 29.0306 28.261 26.636 27.3788 24.2414C27.2395 23.8782 27.0964 23.515 26.9029 23.0081C26.7675 23.3194 26.6746 23.503 26.6011 23.6946C25.6531 26.2129 24.7052 28.7313 23.7766 31.2536C23.744 31.4049 23.6564 31.5376 23.532 31.6244C23.4075 31.7113 23.2555 31.7457 23.1072 31.7205C21.7956 31.6966 20.4839 31.7205 19.1104 31.7205C19.1607 31.5449 19.1877 31.4132 19.2342 31.2855C20.9727 26.632 22.7113 21.9758 24.4498 17.3169C24.4734 17.1931 24.5416 17.083 24.6406 17.009C24.7397 16.9349 24.8623 16.9023 24.9838 16.9178C26.2645 16.9178 27.5491 16.9178 28.8298 16.9178C28.9172 16.9276 29.0012 16.9584 29.0751 17.0075C29.149 17.0567 29.2107 17.1231 29.2554 17.2012C31.0429 21.9266 32.8176 26.6546 34.5794 31.3853C34.6064 31.4891 34.6181 31.5649 34.6606 31.7165Z" fill="#006716"/>
<path d="M48.6139 19.2205L45.7004 21.8546C43.847 19.7154 41.5178 20.1704 40.2487 21.4954C39.5432 22.2412 39.1454 23.2399 39.1389 24.2819C39.1324 25.3238 39.5177 26.3278 40.2139 27.0828C41.5216 28.4757 43.8819 28.8788 45.712 26.7636L48.6177 29.3777C47.5233 30.5916 46.0924 31.4279 44.5203 31.7723C42.5657 32.2203 40.5191 31.8854 38.795 30.8354C37.0708 29.7854 35.798 28.0987 35.2342 26.117C34.4333 23.1357 35.6521 19.9269 38.3025 18.0472C39.8256 16.9733 41.6616 16.4753 43.4998 16.6375C45.338 16.7996 47.0653 17.6121 48.3895 18.9371C48.4475 19.0329 48.5094 19.1048 48.6139 19.2205Z" fill="#006716"/>
<path d="M44.8629 7.08055C44.666 5.41938 43.9716 3.86295 42.8765 2.62818C41.7814 1.3934 40.34 0.541791 38.7534 0.192043C36.7971 -0.251352 34.7505 0.0874648 33.0269 1.14009C31.3034 2.19272 30.0312 3.88073 29.4674 5.86328C29.1424 7.06424 29.1424 8.33405 29.4674 9.53501C30.032 11.5172 31.3041 13.205 33.0273 14.2581C34.7505 15.3113 36.7967 15.6515 38.7534 15.2103C40.3395 14.8594 41.7802 14.0075 42.8752 12.7729C43.9701 11.5383 44.6649 9.98249 44.8629 8.32175C44.8861 8.11422 44.8977 7.92265 44.9016 7.69915C44.9054 7.47565 44.8861 7.28409 44.8629 7.08055ZM37.0394 11.6223C36.2826 11.6462 35.5362 11.4365 34.8956 11.0201C34.2551 10.6038 33.7496 9.99974 33.4438 9.2853C33.1381 8.57086 33.046 7.77856 33.1794 7.00982C33.3128 6.24108 33.6655 5.5309 34.1925 4.9702C34.7195 4.40949 35.3968 4.02377 36.1376 3.86243C36.8783 3.7011 37.6489 3.77148 38.3507 4.06457C39.0525 4.35766 39.6535 4.86012 40.0768 5.50762C40.5001 6.15512 40.7264 6.9182 40.7267 7.69915C40.7412 8.72349 40.3611 9.7119 39.6697 10.4474C38.9784 11.183 38.0324 11.6055 37.0394 11.6223Z" fill="#006716"/>
<path d="M28.1949 7.08055C27.998 5.41938 27.3036 3.86295 26.2085 2.62818C25.1134 1.3934 23.6721 0.541791 22.0855 0.192043C20.1291 -0.251352 18.0825 0.0874648 16.3589 1.14009C14.6354 2.19272 13.3632 3.88073 12.7994 5.86328C12.4744 7.06424 12.4744 8.33405 12.7994 9.53501C13.3641 11.5172 14.6362 13.205 16.3594 14.2581C18.0826 15.3113 20.1287 15.6515 22.0855 15.2103C23.6716 14.8594 25.1123 14.0075 26.2072 12.7729C27.3022 11.5383 27.9969 9.98249 28.1949 8.32175C28.2181 8.11422 28.2297 7.92265 28.2336 7.69915C28.2375 7.47565 28.2181 7.28409 28.1949 7.08055ZM20.3714 11.6223C19.6146 11.6462 18.8682 11.4365 18.2277 11.0201C17.5871 10.6038 17.0816 9.99974 16.7759 9.2853C16.4701 8.57086 16.378 7.77856 16.5114 7.00982C16.6448 6.24108 16.9976 5.5309 17.5246 4.9702C18.0516 4.40949 18.7288 4.02377 19.4696 3.86243C20.2104 3.7011 20.981 3.77148 21.6827 4.06457C22.3845 4.35766 22.9855 4.86012 23.4088 5.50762C23.8321 6.15512 24.0584 6.9182 24.0587 7.69915C24.0732 8.72349 23.6931 9.7119 23.0018 10.4474C22.3105 11.183 21.3644 11.6055 20.3714 11.6223Z" fill="#006716"/>
</g>
<defs>
<clipPath id="clip0_2598_20257">
<rect width="73" height="32" fill="white"/>
</clipPath>
</defs>
</svg>
