<svg width="462" height="462" viewBox="0 0 462 462" fill="none" xmlns="http://www.w3.org/2000/svg">
<path d="M461.998 0H0.0732422V461.998H461.998V0Z" fill="#00BF84"/>
<path d="M461.998 75.2157L386.794 0H394.839L461.998 67.1696V75.2157Z" fill="#04AD75"/>
<path d="M461.998 163.327L298.697 0H306.742L461.998 155.316V163.327Z" fill="#04AD75"/>
<path d="M461.999 251.437L210.602 0H218.61L461.999 243.427V251.437Z" fill="#04AD75"/>
<path d="M461.998 339.548L122.504 0H130.513L461.998 331.538V339.548Z" fill="#04AD75"/>
<path d="M461.995 427.695L34.3682 0H42.413L461.995 419.649V427.695Z" fill="#04AD75"/>
<path d="M408.235 461.998L0.0732422 53.8077V45.7617L416.244 461.998H408.235Z" fill="#04AD75"/>
<path d="M320.102 461.999L0.0732422 141.919V133.873L328.147 461.999H320.102Z" fill="#04AD75"/>
<path d="M232.005 461.999L0.0732422 230.03V221.984L240.05 461.999H232.005Z" fill="#04AD75"/>
<path d="M143.908 461.997L0.0732422 318.139V310.129L151.917 461.997H143.908Z" fill="#04AD75"/>
<path d="M55.8116 462L0.0732422 406.252V398.242L63.8204 462H55.8116Z" fill="#04AD75"/>
<path d="M350.126 390.66C387.098 390.66 417.07 360.684 417.07 323.706C417.07 286.728 387.098 256.752 350.126 256.752C313.154 256.752 283.183 286.728 283.183 323.706C283.183 360.684 313.154 390.66 350.126 390.66Z" fill="#F9C900"/>
<path d="M373.508 316.74L396.026 309.556L416.999 324.786C416.999 324.463 416.999 324.175 416.999 323.852C417.036 309.368 412.345 295.268 403.64 283.694L395.631 308.371L373.077 315.554L350.667 299.283V275.468L371.676 260.202C357.704 255.446 342.551 255.446 328.579 260.202L349.589 275.468V299.175L327.143 315.447L304.625 308.263L296.616 283.586C287.911 295.16 283.22 309.26 283.256 323.744V324.678L304.266 309.448L326.784 316.632L335.331 342.997L321.433 362.142H295.467C304.003 374.247 316.301 383.188 330.447 387.573L322.402 362.861L336.337 343.715H364.062L377.961 362.861L369.916 387.681C384.053 383.296 396.34 374.354 404.86 362.25H378.895L364.96 343.105L373.508 316.74Z" fill="#16349B"/>
<path d="M385.715 264.369L200.759 145.511V130.353C200.74 120.931 196.987 111.9 190.322 105.241C183.657 98.5823 174.625 94.8376 165.204 94.8281H0V130.353H10.7742L0 141.129V147.415L16.9872 130.424H33.9027L60.4072 156.933L25.4631 191.883L0 166.38V172.666L21.7279 194.397L0 216.129V222.415L25.4631 196.948L60.4072 231.933L25.4631 266.883L0 241.416V247.702L21.7279 269.469L0 291.201V297.487L25.4631 272.02L60.4072 307.005L25.4631 341.955L0 316.488V322.774L21.7279 344.506L0 366.273V372.451L25.4631 346.984L60.4072 381.934L25.4631 416.92L0 391.56V397.846L22.3026 420.152L0 442.458V448.744L25.4631 423.277L60.4072 458.263L56.6363 461.855H62.9212L63.5317 461.244L64.1422 461.855H70.4271L66.8357 458.263L101.78 423.277L136.724 458.263L133.133 461.855H139.418L140.064 461.244L140.675 461.855H146.96L143.189 458.263L165.455 435.957V461.999H201.01V447.882L215.16 461.999H221.409L201.01 441.596V424.57L227.443 398.134L262.387 433.083L233.656 461.999H239.941L265.727 436.208L286.772 457.257L280.847 461.999H288.03L395.053 376.402C403.414 369.281 409.961 360.273 414.152 350.121C418.343 339.969 420.059 328.965 419.157 318.019C418.255 307.072 414.762 296.498 408.966 287.169C403.169 277.84 395.237 270.025 385.823 264.369H385.715ZM163.049 130.353L139.705 153.736L116.325 130.353H163.049ZM110.04 130.353L136.545 156.861L101.6 191.811L66.7641 156.933L93.3762 130.353H110.04ZM66.6562 231.933L101.6 196.948L136.545 231.933L101.6 266.883L66.6562 231.933ZM136.545 307.005L101.6 341.955L66.6562 307.005L101.6 272.02L136.545 307.005ZM40.2596 130.353H86.9477L63.6036 153.736L40.2596 130.353ZM29.234 194.397L63.6036 159.986L98.009 194.397L63.6036 228.772L29.234 194.397ZM29.234 269.469L63.6036 235.058L98.009 269.469L63.6036 303.844L29.234 269.469ZM29.234 344.506L63.6036 310.13L98.009 344.506L63.6036 378.916L29.234 344.506ZM63.6036 455.066L28.7311 420.152L63.6753 385.202L98.6197 420.152L63.6036 455.066ZM66.7641 382.006L101.708 347.056L136.652 382.006L101.708 416.991L66.7641 382.006ZM165.204 429.707L139.813 455.066L104.833 420.116L139.813 385.167L165.204 410.562V429.707ZM165.204 404.348L142.937 382.042L165.204 359.771V404.348ZM165.204 353.485L139.813 378.916L105.407 344.506L139.813 310.13L165.204 335.562V353.485ZM165.204 329.276L142.937 307.005L165.204 284.699V329.276ZM165.204 278.413L139.813 303.844L105.407 269.469L139.813 235.058L165.204 260.489V278.413ZM165.204 254.204L142.937 231.933L165.204 209.627V254.204ZM165.204 203.377L139.813 228.772L105.407 194.397L139.813 159.986L165.204 185.417V203.377ZM165.204 179.132L142.937 156.861L165.204 134.591V179.132ZM364.921 256.359L341.47 279.814L307.1 245.403L323.082 229.455L364.921 256.359ZM265.296 279.814L230.89 245.403L265.296 211.028L299.666 245.403L265.296 279.814ZM303.365 247.989L338.345 282.939L303.365 317.889L268.421 282.939L303.365 247.989ZM299.773 320.475L265.404 354.85L230.998 320.475L265.404 286.1L299.773 320.475ZM303.365 323.062L338.345 358.011L303.365 392.961L268.421 358.083L303.365 323.062ZM306.956 320.475L341.326 286.1L375.695 320.475L341.326 354.85L306.956 320.475ZM319.095 227.084L303.221 242.961L268.277 208.011L276.537 199.749L319.095 227.084ZM272.946 197.163L265.368 204.742L230.495 169.864L272.946 197.163ZM200.759 150.791L212.826 158.585L224.067 169.792L200.759 193.068V150.791ZM200.759 199.354L227.191 172.917L262.136 207.903L227.191 242.853L200.759 216.38V199.354ZM200.759 222.666L223.492 245.403L200.759 268.284V222.666ZM200.759 274.426L227.191 247.989L262.136 282.939L227.191 317.889L200.759 291.452V274.426ZM200.759 297.738L223.492 320.475L200.759 343.212V297.738ZM200.759 418.284V372.81L223.492 395.547L200.759 418.284ZM200.759 366.524V349.498L227.191 323.062L262.172 358.083L227.227 393.033L200.759 366.524ZM230.89 395.547L265.296 361.136L299.666 395.547L265.296 429.922L230.89 395.547ZM289.825 454.491L268.277 432.94L303.221 397.99L328.612 423.313L289.825 454.491ZM332.24 420.691L307.1 395.547L341.47 361.136L370.488 390.195L332.24 420.691ZM392.108 372.954L374.151 387.322L344.774 358.083L379.718 323.133L408.449 351.869C404.527 359.957 398.961 367.138 392.108 372.954V372.954ZM414.842 323.672C414.816 331.817 413.257 339.884 410.245 347.451L383.273 320.475L408.413 295.332C412.687 304.165 414.886 313.859 414.842 323.672V323.672ZM379.574 317.889L344.774 282.939L368.872 258.801L383.489 268.212L385.608 269.469C394.135 275.008 401.225 282.494 406.294 291.309L379.574 317.889Z" fill="white"/>
</svg>
