<svg width="711" height="365" viewBox="0 0 711 365" fill="none" xmlns="http://www.w3.org/2000/svg">
<path d="M566.924 281.208C566.816 278.058 565.994 274.974 564.522 272.187C563.312 269.981 561.517 268.151 559.335 266.898C558.825 266.459 558.214 266.151 557.558 266.004C556.901 265.856 556.217 265.873 555.568 266.053C554.862 266.266 554.254 266.723 553.853 267.342C553.453 267.962 553.285 268.704 553.381 269.436C553.672 270.458 554.295 271.354 555.151 271.984C558.44 275.039 560.588 279.124 561.24 283.565C561.285 284.164 561.479 284.741 561.804 285.245C562.004 285.512 562.26 285.731 562.554 285.887C562.849 286.043 563.174 286.132 563.507 286.147H563.71C564.181 286.14 564.645 286.027 565.066 285.816C565.488 285.605 565.857 285.302 566.146 284.93C566.824 283.815 567.098 282.501 566.924 281.208ZM564.669 283.903C564.553 284.041 564.41 284.152 564.249 284.23C564.088 284.307 563.912 284.35 563.733 284.354C563.518 284.354 563.394 284.354 563.315 284.185C563.164 283.9 563.079 283.584 563.067 283.261C562.332 278.382 559.943 273.903 556.301 270.575C555.786 270.221 555.392 269.717 555.174 269.131C555.173 268.944 555.211 268.758 555.286 268.586C555.361 268.414 555.471 268.259 555.609 268.132C555.747 268.005 555.91 267.908 556.087 267.847C556.265 267.786 556.453 267.762 556.64 267.778L556.797 267.846C559.412 268.792 561.585 270.672 562.898 273.123C564.217 275.657 564.953 278.455 565.052 281.31C565.204 282.197 565.057 283.109 564.635 283.903H564.669Z" fill="#012466"/>
<path d="M577.637 274.893C577.529 271.743 576.708 268.658 575.235 265.872C574.033 263.657 572.236 261.821 570.048 260.572C569.534 260.142 568.926 259.841 568.272 259.696C567.618 259.551 566.939 259.565 566.292 259.737C565.578 259.945 564.96 260.399 564.548 261.018C564.135 261.636 563.954 262.381 564.037 263.12C564.344 264.144 564.972 265.042 565.83 265.68C569.101 268.732 571.239 272.803 571.897 277.227C571.941 277.833 572.135 278.418 572.461 278.93C572.666 279.195 572.924 279.413 573.22 279.571C573.515 279.728 573.841 279.821 574.175 279.843C574.238 279.855 574.303 279.855 574.366 279.843C574.836 279.847 575.301 279.743 575.723 279.537C576.146 279.332 576.515 279.031 576.802 278.659C577.515 277.541 577.81 276.208 577.637 274.893ZM575.381 277.588C575.262 277.724 575.117 277.835 574.954 277.914C574.792 277.994 574.615 278.04 574.434 278.05C574.357 278.058 574.28 278.047 574.207 278.02C574.135 277.992 574.07 277.949 574.017 277.893C573.871 277.601 573.791 277.282 573.78 276.957C573.044 272.081 570.655 267.607 567.014 264.282C566.507 263.919 566.116 263.418 565.886 262.838C565.871 262.55 565.953 262.264 566.118 262.027C566.284 261.79 566.524 261.615 566.8 261.53C566.981 261.486 567.166 261.46 567.352 261.451C567.394 261.494 567.451 261.518 567.51 261.519C570.125 262.478 572.296 264.364 573.611 266.819C574.934 269.352 575.674 272.15 575.776 275.006C575.925 275.889 575.778 276.797 575.359 277.588H575.381Z" fill="#012466"/>
<path d="M587.887 269.909C587.788 266.758 586.967 263.671 585.485 260.888C584.273 258.687 582.484 256.858 580.31 255.599C579.795 255.173 579.185 254.875 578.532 254.732C577.879 254.589 577.201 254.604 576.554 254.776C575.85 254.993 575.243 255.45 574.841 256.069C574.439 256.687 574.267 257.427 574.356 258.159C574.642 259.19 575.27 260.092 576.137 260.719C579.422 263.76 581.563 267.836 582.204 272.266C582.257 272.873 582.458 273.458 582.79 273.969C582.988 274.236 583.242 274.457 583.534 274.615C583.826 274.772 584.15 274.864 584.482 274.882H584.696C585.166 274.874 585.629 274.762 586.05 274.553C586.471 274.344 586.841 274.045 587.132 273.675C587.806 272.543 588.073 271.214 587.887 269.909ZM585.632 272.604C585.519 272.746 585.375 272.861 585.211 272.939C585.046 273.017 584.867 273.057 584.685 273.055C584.611 273.068 584.535 273.06 584.465 273.032C584.395 273.004 584.335 272.958 584.29 272.897C584.144 272.606 584.059 272.287 584.042 271.961C583.3 267.088 580.913 262.615 577.276 259.287C576.767 258.926 576.375 258.424 576.149 257.843C576.139 257.554 576.226 257.27 576.395 257.035C576.565 256.8 576.807 256.629 577.085 256.546C577.259 256.488 577.443 256.465 577.626 256.479L577.795 256.546C580.408 257.487 582.575 259.369 583.873 261.824C585.2 264.356 585.943 267.153 586.049 270.01C586.189 270.901 586.03 271.813 585.598 272.604H585.632Z" fill="#012466"/>
<path d="M684.269 150.547C684.173 152.059 683.992 153.565 683.727 155.058C683.621 155.985 683.313 156.878 682.825 157.674C682.641 157.969 682.374 158.204 682.057 158.348C681.74 158.493 681.387 158.541 681.043 158.486C680.892 158.441 680.763 158.34 680.683 158.204C680.683 158.066 680.706 157.929 680.75 157.798C681.312 155.012 681.506 152.165 681.325 149.329C682.284 149.701 683.265 150.096 684.269 150.547Z" fill="#006716"/>
<path d="M673.894 153.445C673.788 154.371 673.484 155.263 673.003 156.061C672.815 156.35 672.549 156.581 672.236 156.724C671.922 156.868 671.574 156.92 671.232 156.873C671.007 156.794 670.871 156.659 670.86 156.58C670.849 156.444 670.849 156.309 670.86 156.174C671.522 152.886 671.685 149.518 671.345 146.183C672.383 146.442 673.42 146.724 674.457 147.051C674.445 149.194 674.256 151.332 673.894 153.445Z" fill="#006716"/>
<path d="M662.616 151.922C662.506 152.847 662.203 153.738 661.725 154.538C661.537 154.825 661.27 155.052 660.956 155.192C660.642 155.332 660.294 155.379 659.955 155.327C659.74 155.327 659.583 155.135 659.571 155.034C659.584 154.905 659.607 154.776 659.639 154.651C660.386 150.895 660.482 147.038 659.921 143.25L663.202 144.073C663.266 146.702 663.069 149.331 662.616 151.922Z" fill="#006716"/>
<path d="M169.687 95.7209C168.588 102.596 166.11 109.178 162.402 115.071C158.574 120.971 153.61 126.051 147.799 130.013C133.139 140.162 110.383 143.33 95.4082 137.343C102.239 124.158 107.561 110.245 111.274 95.8675C111.5 95.0443 111.714 94.2099 111.906 93.3641C112.097 92.5184 112.278 91.8644 112.447 91.1088C112.616 90.3533 112.808 89.6203 112.977 88.8535C114.105 83.7114 115.041 78.513 115.751 73.2807C116.304 71.6456 117.251 70.1571 118.954 70.0781C120.185 70.1478 121.365 70.5925 122.337 71.3524C125.349 73.3728 128.255 75.5483 131.042 77.8702C133.455 79.821 135.97 81.8621 138.609 83.6551C139.105 83.9934 139.601 84.3316 140.108 84.6474C140.616 84.9631 141.315 85.4255 141.946 85.775C144.42 87.2686 146.994 88.591 149.648 89.7331C150.009 89.8985 150.385 90.0564 150.776 90.2067C152.558 90.9585 154.411 91.6576 156.335 92.3041C156.91 92.4733 157.463 92.665 158.117 92.868C161.914 94.0444 165.778 94.997 169.687 95.7209Z" fill="white"/>
<path d="M299.513 170.663C296.802 174.758 294.455 179.082 292.499 183.586C279.542 212.048 269.664 248.641 264.364 287.003L263.856 290.691C263.405 294.175 262.977 297.671 262.605 301.178L262.21 305.136C261.894 308.35 261.59 311.552 261.353 314.766C241.833 308.801 229.97 302.069 218.502 295.596C213.992 293.025 209.267 290.364 204.204 287.804C196.964 284.162 189.319 280.215 182.226 275.738C177.715 272.885 173.261 269.694 168.976 266.638C151.723 254.301 133.928 241.581 117.51 227.553C119.314 226.144 121.141 224.768 123.024 223.505L126.407 221.374C128.143 220.291 129.925 219.292 131.752 218.374C132.97 217.754 134.199 217.179 135.451 216.638C139.083 215.064 142.859 213.848 146.727 213.007C146.851 212.985 146.968 212.937 147.072 212.867C147.176 212.797 147.264 212.706 147.331 212.6C147.398 212.494 147.442 212.375 147.46 212.251C147.479 212.126 147.471 212 147.438 211.879C147.384 211.634 147.235 211.42 147.023 211.285C146.812 211.15 146.555 211.104 146.31 211.157C134.808 213.604 124.964 219.186 116.021 226.29C115.525 226.663 115.029 227.069 114.555 227.497C106.278 234.263 98.7682 242.224 91.3257 250.05L90.3333 251.11C89.0591 252.463 87.7848 253.794 86.488 255.147C77.3939 250.669 67.7647 247.372 57.8344 245.337L52.6021 244.322L48.8808 243.6L42.4081 242.405L38.6756 241.694L33.3418 240.657L49.4108 212.003C57.0338 198.471 64.9273 184.364 73.8358 171.284C75.3468 169.028 76.8917 166.874 78.4366 164.664C80.534 161.687 82.7329 158.586 84.7853 155.485C88.3156 150.175 91.5712 144.688 94.5395 139.044C95.5882 139.484 96.6594 139.856 97.7645 140.172C98.8696 140.487 100.245 140.86 101.531 141.119C103.697 141.588 105.894 141.905 108.105 142.066H108.218C109.571 142.168 110.936 142.213 112.323 142.224C124.986 142.303 138.789 138.537 148.847 131.534C159.966 123.787 167.217 113.491 170.453 101.008C170.769 99.8018 171.039 98.5952 171.265 97.3435C171.355 96.9262 171.445 96.4865 171.513 96.0354C173.881 96.4414 176.351 96.7797 178.877 97.0616C192.477 98.5611 206.217 98.235 219.731 96.0918C228.652 94.5373 237.481 92.4894 246.175 89.9574C251.464 88.5365 256.91 87.0706 262.334 85.8414C266.495 84.8942 270.34 83.9357 274.073 82.9434C273.577 84.3304 273.058 85.7061 272.551 87.0367C272.551 87.0367 272.551 87.172 272.483 87.2172C271.874 88.7959 271.254 90.4084 270.679 92.0548C269.884 94.3293 269.225 96.6488 268.705 99.0011C267.586 104.013 266.81 109.096 266.382 114.213C266.157 117.393 266.067 123.787 265.999 128.94C265.999 132.21 265.92 135.075 265.83 136.518C255.616 140.179 245.126 143.015 234.459 144.998C231.485 139.728 228.925 134.235 226.802 128.568C226.757 128.455 226.69 128.351 226.605 128.263C226.52 128.176 226.419 128.106 226.307 128.057C226.194 128.009 226.074 127.984 225.952 127.982C225.83 127.981 225.708 128.004 225.595 128.049C225.38 128.144 225.209 128.316 225.115 128.531C225.021 128.746 225.011 128.989 225.088 129.211C227.298 135.104 229.972 140.812 233.083 146.284C233.083 146.34 233.083 146.419 233.162 146.475C233.198 146.532 233.243 146.582 233.297 146.622C235.608 150.559 238.519 154.112 241.924 157.154C247.37 161.879 254.407 165.239 264.071 167.72C270.069 169.276 276.194 170.295 282.372 170.765C288.079 171.195 293.811 171.161 299.513 170.663Z" fill="#006716"/>
<path d="M449.007 333.091C430.445 337.134 411.591 339.698 392.624 340.759C392.162 340.759 391.677 340.759 391.192 340.759C388.655 340.849 386.027 340.759 383.377 340.601C382.114 336.202 381.484 331.646 381.505 327.069C383.49 300.513 391.778 287.906 402.254 271.938C402.807 272.051 403.382 272.187 403.889 272.288C408.143 273.196 412.453 273.818 416.79 274.149C419.665 274.363 422.507 274.431 425.303 274.385C432.013 274.239 438.677 273.946 445.308 273.551C454.543 290.872 456.021 314.71 449.007 333.091Z" fill="white"/>
<path d="M379.656 326.822V326.935C379.617 331.504 380.205 336.057 381.403 340.467C377.682 340.196 373.916 339.734 370.228 339.339C366.225 338.888 362.109 338.414 358.208 338.132C326.543 336.001 295.623 325.92 268.322 317.034L267.522 316.763L263.124 315.331C263.541 309.84 264.071 304.348 264.703 298.89C264.849 297.537 265.007 296.195 265.176 294.853C265.582 291.47 266.022 288.087 266.518 284.828C266.687 283.498 266.879 282.19 267.093 280.882C272.562 245.022 281.99 211.08 294.157 184.343C296.274 179.461 298.869 174.8 301.904 170.428H302.4C304.655 170.349 306.911 170.191 309.166 169.966C317.373 169.045 325.509 167.583 333.523 165.59C350.9 161.508 368.278 156.366 385.113 151.382C400.799 146.759 416.936 141.989 433.129 138.064C428.631 153.842 429.056 170.617 434.347 186.148C435.824 190.376 437.628 194.492 439.376 198.484L446.694 215.072L368.672 257.088C362.623 253.853 356.741 250.315 351.047 246.488C350.946 246.419 350.832 246.371 350.713 246.346C350.593 246.322 350.469 246.322 350.349 246.346C350.229 246.37 350.116 246.418 350.015 246.487C349.914 246.556 349.828 246.645 349.761 246.748C349.693 246.847 349.644 246.96 349.62 247.079C349.596 247.198 349.596 247.321 349.62 247.44C349.644 247.559 349.692 247.672 349.761 247.772C349.83 247.872 349.918 247.957 350.021 248.022C367.533 259.716 384.369 267.564 400.325 271.466C392.229 283.87 385.463 294.301 381.9 310.809C381.651 311.937 381.403 313.211 381.178 314.463C380.603 317.756 380.129 321.229 379.802 325.097C379.734 325.661 379.701 326.236 379.656 326.822Z" fill="#012466" fill-opacity="0.8"/>
<path d="M647.382 154.528C646.254 160.414 642.714 165.545 639.489 169.785C636.263 174.025 632.294 178.491 627.084 181.062L625.517 180.881H625.37C603.257 178.479 579.937 178.987 554.227 182.516C552.907 182.685 551.588 182.877 550.257 183.08C546.638 183.599 542.973 184.208 539.229 184.851L535.305 185.561C532.136 186.136 528.945 186.768 525.697 187.433C527.17 182.95 527.845 178.245 527.693 173.529C527.817 154.641 523.577 138.38 515.413 126.269C519.168 126.089 522.935 125.965 526.69 125.897C528.234 125.897 529.768 125.829 531.313 125.841C535.113 125.773 538.913 125.784 542.702 125.841L546.469 125.942C578.959 126.701 611.26 131.123 642.759 139.124C642.759 139.124 642.826 139.226 642.872 139.282C646.762 142.462 648.577 148.461 647.382 154.528Z" fill="#EDBB44"/>
<path d="M523.398 187.849C515.504 189.53 507.408 191.413 499.018 193.567C490.587 195.608 482.299 198.204 474.21 201.336C468.155 203.839 462.238 206.663 456.483 209.793L450.924 212.782L448.398 214.135L441.158 197.682C439.41 193.724 437.617 189.654 436.174 185.504C430.883 169.99 430.571 153.211 435.283 137.511L437.065 137.082L441.305 136.101C464.948 130.841 488.991 127.574 513.181 126.336C521.571 138.21 525.901 154.448 525.788 173.461C525.687 178.309 525.394 183.339 523.398 187.849Z" fill="white"/>
<path d="M543.435 296.703C540.505 299.673 537.282 302.34 533.817 304.664C524.559 310.888 514.105 314.813 505.231 317.733C497.405 320.282 489.838 322.593 482.463 324.702C481.031 325.119 479.599 325.525 478.201 325.909C473.002 327.352 467.939 328.683 462.955 329.889L458.816 330.904C456.245 331.502 453.708 332.032 451.171 332.63C457.768 314.204 456.29 290.782 447.337 273.428C450.63 273.217 453.907 272.977 457.17 272.706L461.162 272.357C465.019 272.018 468.886 271.624 472.709 271.229C474.062 271.082 475.393 270.924 476.712 270.744C488.425 269.346 499.979 267.527 511.376 265.286C518.853 263.843 525.833 263.031 533.929 262.275C536.114 263.113 538.102 264.391 539.771 266.03C541.449 267.666 542.763 269.637 543.627 271.815C543.853 272.368 544.135 272.943 544.428 273.586C545 274.651 545.425 275.789 545.691 276.969C547.123 284.749 546.176 292.271 543.435 296.703Z" fill="#EDBB44"/>
<path d="M585.598 272.604C585.481 272.742 585.336 272.854 585.173 272.932C585.01 273.01 584.832 273.052 584.651 273.055C584.576 273.066 584.5 273.055 584.43 273.026C584.361 272.996 584.301 272.948 584.256 272.886C584.108 272.599 584.024 272.284 584.008 271.962C583.27 267.084 580.882 262.606 577.242 259.276C576.733 258.915 576.341 258.413 576.115 257.832C576.108 257.545 576.196 257.263 576.365 257.031C576.534 256.798 576.775 256.628 577.051 256.547C577.224 256.483 577.409 256.46 577.592 256.479L577.761 256.547C580.374 257.487 582.542 259.369 583.839 261.824C585.169 264.355 585.909 267.153 586.004 270.011C586.162 270.896 586.02 271.809 585.598 272.604Z" fill="#006716"/>
<path d="M575.359 277.577C575.241 277.714 575.096 277.827 574.933 277.908C574.771 277.99 574.594 278.038 574.412 278.05C574.335 278.055 574.257 278.043 574.184 278.013C574.112 277.984 574.047 277.939 573.995 277.881C573.848 277.595 573.767 277.279 573.758 276.956C573.023 272.078 570.634 267.599 566.992 264.27C566.481 263.913 566.088 263.41 565.865 262.827C565.851 262.539 565.934 262.254 566.099 262.018C566.264 261.781 566.503 261.606 566.778 261.519C566.959 261.473 567.144 261.45 567.331 261.451C567.372 261.494 567.429 261.518 567.489 261.519C570.107 262.471 572.28 264.359 573.589 266.819C574.912 269.352 575.652 272.149 575.754 275.006C575.91 275.883 575.771 276.787 575.359 277.577Z" fill="#006716"/>
<path d="M564.635 283.892C564.523 284.033 564.38 284.146 564.218 284.224C564.056 284.302 563.879 284.343 563.699 284.343C563.621 284.357 563.541 284.35 563.468 284.322C563.394 284.295 563.33 284.247 563.281 284.185C563.132 283.895 563.047 283.575 563.033 283.249C562.294 278.374 559.906 273.901 556.267 270.574C555.752 270.221 555.358 269.717 555.14 269.131C555.124 268.845 555.205 268.562 555.371 268.328C555.537 268.094 555.778 267.924 556.053 267.845C556.229 267.779 556.418 267.752 556.606 267.766L556.764 267.834C559.38 268.784 561.553 270.667 562.864 273.123C564.184 275.653 564.92 278.446 565.018 281.298C565.183 282.181 565.048 283.094 564.635 283.892Z" fill="#006716"/>
<path d="M704.464 183C701.78 184.771 698.352 185.075 694.789 185.256C692.635 185.357 690.278 185.459 687.797 185.436C686.095 185.436 684.358 185.436 682.633 185.267C678.325 184.94 674.074 184.218 669.89 183.485C663.237 182.358 656.358 181.128 649.491 181.681C647.708 181.805 645.918 181.805 644.135 181.681C642.354 181.586 640.57 181.586 638.79 181.681C635.917 181.828 633.036 181.707 630.186 181.32C634.343 178.493 637.972 174.958 640.91 170.878C644.292 166.458 647.957 161.113 649.198 154.843C649.769 152.266 649.779 149.596 649.229 147.014C648.678 144.432 647.579 141.999 646.007 139.879C647.303 140.217 648.6 140.522 649.897 140.883C650.105 140.928 650.323 140.904 650.517 140.815L657.734 142.642C657.807 142.699 657.887 142.749 657.971 142.788C658.612 146.582 658.559 150.46 657.813 154.234C657.714 154.57 657.687 154.924 657.734 155.271C657.813 155.699 658.013 156.094 658.311 156.41C658.609 156.726 658.992 156.949 659.414 157.053C659.609 157.127 659.815 157.169 660.023 157.177C660.648 157.195 661.268 157.055 661.826 156.771C662.383 156.488 662.861 156.069 663.215 155.553C663.874 154.532 664.294 153.376 664.444 152.17C664.885 149.627 665.096 147.049 665.075 144.468L667.454 145.077C668.108 145.235 668.763 145.416 669.417 145.596C669.863 148.975 669.745 152.405 669.067 155.745C668.99 156.077 668.967 156.42 668.999 156.76C669.084 157.189 669.287 157.585 669.586 157.904C669.886 158.223 670.268 158.452 670.691 158.564C670.89 158.62 671.094 158.654 671.3 158.666C671.922 158.68 672.538 158.541 673.094 158.262C673.651 157.983 674.13 157.571 674.491 157.064C675.144 156.04 675.564 154.886 675.72 153.681C676.075 151.639 676.278 149.574 676.329 147.502L677.209 147.772C677.93 148.021 678.652 148.257 679.396 148.539C679.659 151.487 679.492 154.458 678.9 157.358C678.816 157.693 678.797 158.041 678.844 158.384C678.928 158.811 679.129 159.207 679.426 159.526C679.723 159.845 680.103 160.074 680.524 160.188L681.133 160.289C681.755 160.305 682.371 160.166 682.926 159.885C683.482 159.603 683.958 159.188 684.313 158.677C684.982 157.66 685.406 156.502 685.553 155.294C685.779 153.952 685.959 152.588 686.061 151.223C687.617 151.9 689.263 152.678 691.022 153.478C695.159 155.301 699.025 157.684 702.513 160.56C703.389 161.346 704.206 162.194 704.96 163.097C707.073 165.531 708.474 168.5 709.008 171.679C709.64 176.302 707.836 180.801 704.464 183Z" fill="#012466"/>
<path d="M101.542 141.098C98.5766 146.149 91.822 157.663 87.2325 164.891C85.7327 167.282 51.1476 221.815 42.4083 242.383L38.6758 241.673C46.9189 221.68 80.2636 168.973 84.1314 162.895C88.4278 156.129 94.6637 145.552 97.7986 140.15C99.0051 140.489 100.257 140.838 101.542 141.098Z" fill="white"/>
<path d="M112.323 142.214C110.225 145.777 102.264 159.467 97.0656 167.642C83.6127 188.842 59.9884 227.521 52.5572 244.323L48.8359 243.601C57.6091 223.078 90.1193 171.6 93.942 165.624C98.4526 158.463 105.151 147.051 108.105 142.011H108.218C109.583 142.157 110.947 142.202 112.323 142.214Z" fill="white"/>
<path d="M272.45 87.207C271.841 88.7857 271.221 90.3983 270.646 92.0446C265.357 94.0406 254.159 97.4461 230.885 101.991C217.752 104.674 204.318 105.58 190.943 104.686C183.981 104.264 177.093 103.026 170.42 100.998L171.232 97.3333C174.615 98.461 196.288 104.979 230.174 98.3482C262.03 92.1123 270.702 88.1881 272.45 87.207Z" fill="white"/>
<path d="M126.284 221.33C131.696 226.562 189.24 281.253 262.572 301.179L262.177 305.137C187.481 284.839 127.829 228.22 122.935 223.461L126.284 221.33Z" fill="white"/>
<path d="M264.33 287.005L263.823 290.692C207.846 284.727 136.003 222.199 131.628 218.297C132.846 217.677 134.075 217.102 135.327 216.561C145.712 225.48 213.067 281.626 264.33 287.005Z" fill="white"/>
<path d="M539.128 184.816L535.204 185.527C543.785 141.909 526.611 126.19 526.431 126.032L526.577 125.852C528.122 125.852 529.656 125.784 531.201 125.795C535.971 131.862 545.747 149.341 539.128 184.816Z" fill="white"/>
<path d="M542.59 125.829L542.037 126.314C542.206 126.528 559.561 147.48 550.156 183.08C551.487 182.877 552.806 182.685 554.126 182.516C561.748 151.844 550.641 132.076 546.379 125.931L542.59 125.829Z" fill="white"/>
<path d="M462.932 329.933L458.794 330.948C468.943 297.017 458.794 275.874 457.147 272.75L461.139 272.4C464.15 278.512 471.694 298.697 462.932 329.933Z" fill="white"/>
<path d="M482.441 324.712C481.009 325.129 479.576 325.535 478.178 325.919C481.088 316.912 482.102 307.4 481.157 297.982C480.212 288.564 477.328 279.443 472.687 271.194C474.04 271.047 475.37 270.889 476.69 270.709C485.498 287.295 487.559 306.643 482.441 324.712Z" fill="white"/>
<g style="mix-blend-mode:multiply" opacity="0.3">
<path d="M267.509 316.763L263.111 315.33C263.529 309.839 264.059 304.347 264.69 298.889C264.837 297.536 264.995 296.194 265.164 294.852C265.57 291.469 266.009 288.086 266.506 284.827C266.675 283.497 266.866 282.189 267.081 280.881C272.55 245.021 281.977 211.079 294.144 184.342C296.261 179.46 298.856 174.799 301.891 170.427H302.387C304.643 170.348 306.898 170.19 309.153 169.965C303.538 179.956 270.328 242.078 267.509 316.763Z" fill="#808080"/>
</g>
<g style="mix-blend-mode:multiply" opacity="0.3">
<path d="M456.425 209.805L450.866 212.793L448.34 214.146L441.101 197.694C439.353 193.736 437.56 189.665 436.116 185.515C430.825 170.001 430.514 153.222 435.226 137.522L437.007 137.094C434.628 146.465 430.388 175.445 456.425 209.805Z" fill="#808080"/>
</g>
<g style="mix-blend-mode:multiply" opacity="0.3">
<path d="M391.18 340.793C388.643 340.883 386.016 340.793 383.366 340.635C382.103 336.236 381.472 331.68 381.494 327.104C383.478 300.547 391.767 287.94 402.242 271.973C402.795 272.085 403.37 272.221 403.878 272.322C403.878 272.266 378.629 314 391.18 340.793Z" fill="#808080"/>
</g>
<path d="M704.464 183.001C701.78 184.772 698.352 185.076 694.788 185.256C692.635 185.358 690.278 185.459 687.797 185.437C689.545 173.788 698.949 166.684 704.971 163.233C707.084 165.667 708.485 168.636 709.019 171.815C709.639 176.303 707.835 180.802 704.464 183.001Z" fill="#012466" fill-opacity="0.8"/>
<path d="M624.829 254.629C622.658 258.606 619.978 262.283 616.857 265.568C604.813 256.952 605.58 243.736 607.26 236.361C609.144 236.53 611.015 236.745 612.899 237.015C615.919 237.313 618.865 238.133 621.604 239.44C622.898 240.066 624.042 240.965 624.957 242.074C625.872 243.184 626.536 244.478 626.904 245.867C627.558 249.047 626.036 252.374 624.829 254.629Z" fill="#012466" fill-opacity="0.8"/>
<path d="M710.858 171.555C710.003 166.771 707.492 162.439 703.765 159.32C700.146 156.334 696.14 153.85 691.857 151.934C689.805 150.964 687.933 150.096 686.219 149.329L684.381 148.54C683.253 148.089 682.227 147.671 681.189 147.299C680.524 147.04 679.87 146.803 679.216 146.566L677.818 146.115L676.408 145.664L674.525 145.112C673.397 144.785 672.27 144.48 671.142 144.21L668.695 143.556L667.951 143.375L664.951 142.608L663.677 142.293L646.762 137.996C646.574 137.94 646.371 137.96 646.198 138.053C603.097 126.799 558.528 122.205 514.037 124.431L512.245 124.509C488.234 125.794 464.37 129.06 440.898 134.275C421.92 138.537 402.964 144.142 384.651 149.555C367.837 154.516 350.472 159.647 333.162 163.707C323.588 165.962 313.338 168.071 302.828 168.488H302.682C302.061 168.488 300.776 168.657 300.776 168.657C288.639 169.906 276.376 168.998 264.556 165.973C255.185 163.549 248.397 160.335 243.13 155.824C240.16 153.199 237.582 150.161 235.474 146.803C248.928 144.203 262.108 140.345 274.84 135.279C287.109 130.497 298.825 124.961 310.868 119.266C316.315 116.672 321.931 114.034 327.682 111.372C333.175 108.922 338.542 106.197 343.762 103.208L347.765 100.953C355.941 96.2505 365.199 90.9393 372.382 85.5491L378.167 81.2189C400.472 64.5184 419.754 50.0957 439.759 29.347C441.563 27.4863 443.661 23.4944 444.89 19.6266C446.672 13.9883 445.115 6.24137 439.387 3.09522C434.448 0.388853 427.964 0.276082 421.559 2.74564C415.921 5.00094 411.139 8.65454 406.505 12.2743C404.768 13.6162 403.054 14.9581 401.329 16.2549C399.926 14.9595 398.383 13.8248 396.728 12.872C396.098 12.491 395.398 12.2407 394.67 12.1361C393.941 12.0315 393.199 12.0746 392.488 12.263C391.758 12.5518 391.124 13.0382 390.656 13.6677C390.188 14.2972 389.905 15.0448 389.838 15.8264C389.646 18.3636 391.439 20.8219 392.747 22.5923C388.943 25.434 385.184 28.2268 381.471 30.9708C373.34 36.9924 364.962 43.2058 356.516 49.7687C344.01 58.4629 331.707 62.4661 318.615 66.6835C315.582 67.6533 312.504 68.6569 309.391 69.7394C296.987 74.0132 287.312 77.2496 276.87 80.1477C276.171 80.3281 275.46 80.5198 274.761 80.7228C270.69 81.8504 266.462 82.8766 261.883 83.9027C256.414 85.1432 250.934 86.6317 245.656 88.0525C237.038 90.5886 228.29 92.6589 219.45 94.2546C206.097 96.3451 192.527 96.6636 179.091 95.2018C176.283 94.8973 173.611 94.5027 171.028 94.0742C170.991 94.0807 170.953 94.0807 170.916 94.0742C170.89 94.0683 170.863 94.0683 170.837 94.0742C170.025 93.9388 169.235 93.781 168.469 93.6344C165.185 93.005 161.94 92.1918 158.748 91.1986C158.151 91.0295 157.542 90.8491 156.967 90.6461C155.952 90.3078 154.937 89.947 153.956 89.5748C152.975 89.2027 152.253 88.9321 151.43 88.5712H151.351C151.08 88.4585 150.81 88.3682 150.55 88.2329C150.291 88.0976 149.998 88.0074 149.727 87.8721C149.129 87.6014 148.599 87.3421 147.979 87.0602C147.641 86.9023 147.303 86.7219 146.976 86.5527C146.31 86.237 145.667 85.91 145.047 85.5491L144.405 85.177C143.852 84.8725 143.277 84.5568 142.769 84.2185L142.127 83.8351C141.292 83.3389 140.48 82.7976 139.657 82.2564C138.834 81.7151 137.999 81.1287 137.188 80.4521C136.376 79.7755 135.496 79.1891 134.673 78.5126L133.432 77.5202L132.215 76.5505C129.378 74.1783 126.416 71.9612 123.34 69.9086C122.073 68.9243 120.524 68.3711 118.92 68.3299C117.923 68.4042 116.969 68.7623 116.17 69.3618C115.37 69.9613 114.759 70.7771 114.409 71.7128C114.227 71.8592 114.106 72.0684 114.071 72.2992C114.071 72.4683 114.071 72.615 114.003 72.7841C113.524 74.3149 113.262 75.9054 113.225 77.5089C113.208 77.6211 113.208 77.7351 113.225 77.8472C112.721 80.937 112.135 84.008 111.466 87.0602C111.319 87.827 111.15 88.5938 110.981 89.3155C110.834 89.9131 110.699 90.5221 110.564 91.1197C110.564 91.1197 110.564 91.1197 110.564 91.2099C110.395 91.9091 110.237 92.5631 110.068 93.2397C110.068 93.3863 110 93.5216 109.966 93.6682C109.729 94.5703 109.504 95.5063 109.256 96.4197C109.256 96.5663 109.177 96.7129 109.132 96.8595C108.94 97.5699 108.759 98.3029 108.534 99.0133C108.128 100.524 107.677 102.047 107.203 103.524C107.057 104.02 106.91 104.527 106.741 105.035C106.425 106.05 106.098 107.053 105.771 108.057C100.335 124.431 92.7517 140.012 83.2181 154.392C81.1771 157.471 79.012 160.549 76.9033 163.538C75.3584 165.793 73.8135 167.935 72.2912 170.168C63.3264 183.317 55.4328 197.401 47.776 211.023L31.38 240.285L30.6921 241.526L29.2487 244.097C29.0728 244.171 28.9234 244.297 28.8202 244.458C11.9618 272.424 -5.55061 294.447 -24.7883 311.677C-27.9232 314.496 -31.0468 317.09 -34.1366 319.571L-35.2642 318.251C-36.6408 316.611 -38.3366 315.269 -40.2485 314.305C-42.5038 313.391 -45.4469 313.594 -47.0144 315.737C-47.4138 316.348 -47.6864 317.033 -47.8162 317.752C-47.946 318.471 -47.9302 319.208 -47.7699 319.92C-47.4624 321.186 -46.9521 322.393 -46.2588 323.495C-45.7176 324.431 -44.9057 325.75 -44.0825 327.025C-47.6458 329.584 -51.2205 332.076 -54.8741 334.602C-57.6594 336.531 -60.5124 338.504 -63.4217 340.568C-65.9484 342.642 -67.7947 345.427 -68.7217 348.563C-69.1062 350.201 -69.134 351.903 -68.8032 353.552C-68.4725 355.202 -67.7909 356.762 -66.8047 358.125C-66.8154 358.185 -66.8154 358.246 -66.8047 358.306C-66.7148 358.489 -66.5686 358.639 -66.3874 358.734C-65.3164 360.078 -63.9807 361.187 -62.4632 361.993C-59.5513 363.458 -56.3695 364.31 -53.115 364.496C-44.8267 365.128 -35.5461 362.444 -28.5322 358.599C-10.3657 348.675 3.57209 337.444 18.3218 325.547C23.4542 321.19 28.3018 316.508 32.8347 311.531C35.7665 308.486 38.4729 305.577 41.2808 302.96C57.0679 287.974 72.4491 272.514 87.1875 257.054L87.3453 256.896L91.5966 252.385L92.6002 251.325C100.031 243.432 107.598 235.414 115.886 228.671C132.44 242.823 150.381 255.655 167.758 268.082C172.066 271.161 176.509 274.352 181.076 277.227C188.236 281.738 195.938 285.719 203.2 289.372C208.241 291.921 212.909 294.582 217.431 297.13C229.226 303.829 241.416 310.741 261.793 316.864L267.646 318.759C294.608 327.554 325.099 337.478 356.448 339.846L357.97 339.959C361.804 340.229 365.729 340.68 369.901 341.165C373.724 341.616 377.592 342.056 381.448 342.349C381.798 342.349 382.147 342.349 382.497 342.349H382.553C385.881 342.604 389.221 342.656 392.556 342.507C426.847 340.725 462.763 333.396 505.648 319.402C514.669 316.47 525.224 312.466 534.64 306.152L557.745 300.017C562.402 298.743 567.206 297.435 571.807 295.664C576.373 293.801 580.834 291.689 585.17 289.338C593.278 285.11 601.16 280.892 608.332 275.547C616.462 269.503 622.563 262.737 626.476 255.486C627.795 252.994 629.498 249.228 628.731 245.473C628.306 243.814 627.525 242.268 626.442 240.942C625.359 239.616 624.001 238.542 622.461 237.793C619.536 236.372 616.383 235.478 613.147 235.155C608.808 234.526 604.437 234.149 600.055 234.027C594.879 233.869 588.959 234.151 584.2 237.218C582.914 238.107 581.696 239.091 580.558 240.161L579.554 241.03C576.831 243.346 573.948 245.467 570.928 247.378C560.298 254.33 548.215 258.751 535.609 260.301C535.478 260.244 535.335 260.221 535.192 260.234C527.082 260.885 519.009 261.942 511.004 263.402C482.745 268.838 454.074 271.856 425.303 272.424C408.32 272.796 390.018 267.913 370.69 257.978L451.746 214.428C459.23 210.223 466.94 206.432 474.84 203.073C482.874 199.989 491.096 197.421 499.457 195.382C507.734 193.262 515.74 191.391 523.532 189.744C523.639 189.805 523.759 189.84 523.882 189.846C524.023 189.858 524.165 189.833 524.293 189.774C524.422 189.715 524.533 189.623 524.615 189.507C562.955 181.467 595.882 179.358 626.442 182.843C626.579 182.927 626.733 182.981 626.893 183.001C627.025 183.002 627.155 182.975 627.276 182.922L628.641 183.08H628.708C630.276 183.249 631.742 183.395 633.151 183.508C635.068 183.668 636.994 183.687 638.914 183.565C640.63 183.464 642.351 183.464 644.067 183.565C645.944 183.691 647.828 183.691 649.705 183.565C656.336 183.012 663.102 184.185 669.642 185.335C673.91 186.175 678.22 186.781 682.554 187.151C686.685 187.395 690.827 187.395 694.958 187.151C698.815 186.959 702.502 186.621 705.592 184.602C709.437 181.963 711.591 176.731 710.858 171.555ZM684.268 150.547C684.172 152.059 683.992 153.565 683.727 155.058C683.62 155.981 683.312 156.871 682.824 157.662C682.641 157.959 682.374 158.195 682.057 158.341C681.74 158.488 681.388 158.538 681.043 158.486C680.851 158.407 680.693 158.271 680.682 158.192C680.684 158.054 680.706 157.918 680.75 157.786C681.311 155.005 681.505 152.161 681.325 149.329C682.283 149.712 683.264 150.096 684.268 150.547ZM674.502 147.051C674.476 149.196 674.272 151.334 673.893 153.445C673.789 154.371 673.485 155.264 673.003 156.061C672.815 156.351 672.549 156.581 672.235 156.725C671.922 156.868 671.574 156.92 671.232 156.873C671.153 156.856 671.079 156.822 671.015 156.773C670.951 156.725 670.898 156.662 670.86 156.591C670.847 156.456 670.847 156.32 670.86 156.185C671.521 152.894 671.685 149.523 671.345 146.183C672.427 146.454 673.465 146.736 674.502 147.051ZM663.226 144.074C663.293 146.718 663.097 149.363 662.639 151.968C662.532 152.893 662.228 153.785 661.749 154.584C661.561 154.872 661.294 155.101 660.98 155.243C660.667 155.385 660.319 155.434 659.978 155.385C659.764 155.385 659.606 155.182 659.595 155.091C659.606 154.962 659.629 154.834 659.662 154.708C660.41 150.948 660.505 147.088 659.944 143.296L663.226 144.074ZM443.334 11.3722C438.022 17.3375 432.452 22.5134 426.577 27.9712L426.475 28.0727C426.426 28.1189 426.385 28.1721 426.351 28.2306C425.391 26.8049 424.308 25.4655 423.115 24.2274C424.193 23.436 425.215 22.5693 426.171 21.6338L441.507 7.4254C442.361 8.61285 442.981 9.95238 443.334 11.3722ZM438.474 4.60627C439.138 4.96223 439.749 5.41019 440.289 5.9369L424.919 20.2694C423.953 21.227 422.908 22.1021 421.796 22.8855C420.214 21.2731 418.472 19.826 416.597 18.5666C418.484 17.0631 420.288 15.6347 422.01 14.2815C426.656 10.5828 431.031 7.09837 436.06 3.62521C436.9 3.88293 437.709 4.23077 438.474 4.66265V4.60627ZM276.25 82.3015C287.21 79.3245 297.145 75.9754 310.079 71.5324C313.191 70.4724 316.236 69.4688 319.269 68.4877C332.463 64.2027 344.924 60.1544 357.711 51.2798C366.168 44.6943 374.547 38.4809 382.677 32.4705C386.342 29.7529 390.063 27.0014 393.841 24.1597C393.909 24.2991 394.013 24.4183 394.142 24.5053C394.27 24.5923 394.419 24.6443 394.574 24.6559C394.718 24.6958 394.87 24.6958 395.014 24.6559C395.235 24.5567 395.41 24.3762 395.503 24.1517C395.595 23.9271 395.598 23.6757 395.51 23.4493C395.471 23.3231 395.41 23.2048 395.33 23.0998C395.028 22.553 394.681 22.0324 394.292 21.5436C393.164 19.9649 391.597 17.8223 391.732 15.9053C391.773 15.4944 391.921 15.1015 392.163 14.7667C392.405 14.4319 392.731 14.1672 393.108 13.9996C394.065 13.7978 395.063 13.9844 395.882 14.5183C397.281 15.3306 398.599 16.2746 399.818 17.3375L401.227 18.5779C401.987 19.2491 402.703 19.9685 403.37 20.7317C403.528 20.9201 403.755 21.0378 404 21.059C404.246 21.0801 404.489 21.003 404.678 20.8445C404.866 20.6859 404.984 20.4591 405.005 20.2138C405.026 19.9685 404.949 19.7248 404.791 19.5364C404.148 18.7944 403.458 18.0938 402.727 17.4389C404.351 16.2136 405.978 14.9619 407.61 13.6839C412.12 10.1543 416.811 6.52327 422.19 4.43712C425.83 2.93328 429.809 2.44608 433.704 3.02755C429.193 6.24136 425.145 9.43262 420.882 12.8381C418.976 14.3492 417.003 15.9166 414.928 17.5404C414.147 17.1323 413.332 16.7928 412.492 16.5255C412.378 16.4911 412.257 16.4799 412.138 16.4926C412.019 16.5052 411.904 16.5415 411.799 16.5992C411.694 16.6569 411.601 16.735 411.527 16.8288C411.452 16.9227 411.397 17.0304 411.365 17.1458C411.306 17.3744 411.335 17.6167 411.445 17.8253C411.556 18.0339 411.74 18.1937 411.962 18.2734C415.83 19.4011 419.597 23.2012 420.984 24.6334L421.423 25.0731C423.743 27.3936 425.612 30.1234 426.938 33.1246C427.003 33.2802 427.11 33.4145 427.248 33.5122C427.385 33.6098 427.547 33.667 427.716 33.6771C427.863 33.6904 428.011 33.6631 428.144 33.5982C428.368 33.5014 428.544 33.3204 428.635 33.0945C428.725 32.8686 428.723 32.6161 428.629 32.3916C428.213 31.4236 427.731 30.4854 427.186 29.5838C427.425 29.5725 427.654 29.4856 427.84 29.3357C433.377 24.1936 438.631 19.2657 443.706 13.6951C443.849 15.4748 443.654 17.2654 443.131 18.9725C442.003 22.5359 440.018 26.3361 438.428 27.9938C418.514 48.596 399.299 62.951 377.05 79.6402L371.288 83.9704C369.743 85.0981 368.131 86.2257 366.428 87.3534C364.725 88.481 362.977 89.6087 361.184 90.7363C360 91.4806 358.782 92.2248 357.576 92.9916L356.268 93.7697L353.076 95.6416C350.956 96.882 348.859 98.0773 346.829 99.2501L342.826 101.505C338.315 104.144 333.219 106.715 326.915 109.591C325.562 110.211 324.209 110.82 322.878 111.451C320.702 112.455 318.536 113.458 316.416 114.473C314.297 115.488 312.177 116.481 310.09 117.462C295.983 124.115 282.328 130.565 267.736 135.809C267.803 134.207 267.826 131.715 267.86 128.93C267.939 123.822 268.029 117.439 268.243 114.27C268.659 109.234 269.412 104.231 270.499 99.2952C271.442 95.3135 272.693 91.4113 274.242 87.624C274.953 85.9663 275.629 84.1734 276.25 82.3579V82.3015ZM97.1108 133.993C97.1747 133.886 97.2276 133.773 97.2687 133.655C97.4829 133.226 97.6859 132.809 97.8889 132.38C98.2836 131.535 98.6782 130.689 99.0842 129.866C99.7946 128.355 100.46 126.844 101.114 125.355C101.768 123.867 102.422 122.311 103.042 120.766C103.546 119.548 104.031 118.319 104.497 117.078C104.801 116.3 105.083 115.545 105.365 114.767C105.726 113.808 106.087 112.827 106.414 111.868C106.417 111.839 106.417 111.808 106.414 111.778C106.763 110.775 107.124 109.76 107.44 108.767C107.756 107.775 108.06 106.873 108.365 105.914C108.917 104.167 109.492 102.408 109.943 100.66C109.943 100.66 109.943 100.66 109.943 100.581L110.485 98.6186L111.195 95.9348C111.319 95.4837 111.455 95.0327 111.545 94.5478C111.635 94.0629 111.748 93.8035 111.827 93.4201C111.906 93.0367 111.962 92.8901 112.018 92.6082C112.154 92.1346 112.266 91.6384 112.368 91.1648C112.56 90.4206 112.729 89.6876 112.898 88.9095C114.026 83.7674 114.962 78.5689 115.672 73.3366C116.224 71.7015 117.172 70.2131 118.874 70.1341C120.107 70.2078 121.287 70.6563 122.257 71.4196C125.273 73.4364 128.179 75.612 130.963 77.9375C132.192 78.9185 133.455 79.9447 134.729 80.937C135.349 81.4106 135.947 81.8842 136.567 82.324C137.221 82.7976 137.864 83.26 138.518 83.6998C139.172 84.1395 139.51 84.3651 140.018 84.6808C140.382 84.9325 140.758 85.1659 141.146 85.38C141.36 85.5266 141.585 85.6731 141.822 85.8085C142.285 86.0791 142.758 86.361 143.232 86.6204C143.705 86.8797 143.852 86.9587 144.168 87.1504C144.27 87.1941 144.368 87.247 144.461 87.3082C144.537 87.3368 144.609 87.3747 144.675 87.421C145.465 87.827 146.254 88.2442 147.077 88.6276C147.686 88.9321 148.317 89.214 148.949 89.4846C149.129 89.5861 149.31 89.6538 149.513 89.744C149.878 89.9253 150.255 90.0835 150.64 90.2176C152.422 90.9731 154.249 91.6723 156.177 92.315L157.959 92.8788C158.861 93.1495 159.797 93.4314 160.744 93.6795C161.691 93.9276 162.492 94.1531 163.383 94.3674C163.467 94.3957 163.554 94.4146 163.642 94.4237L163.913 94.5027C164.612 94.6605 165.322 94.8297 166.055 94.9763C166.349 95.0439 166.664 95.1229 166.98 95.1793C167.837 95.3597 168.717 95.5401 169.596 95.698C168.499 102.57 166.021 109.149 162.312 115.037C158.484 120.937 153.519 126.016 147.709 129.979C133.049 140.127 110.293 143.307 95.3178 137.32L97.1108 133.993ZM-67.0978 352.149H-66.9738C-63.7379 351.162 -60.667 349.699 -57.8624 347.807C-55.6634 346.488 -53.6788 345.36 -51.6941 344.199C-49.9801 343.218 -48.2435 342.225 -46.3716 341.109C-45.5268 342.871 -44.5505 344.568 -43.451 346.183C-49.9914 349.803 -56.87 352.949 -63.557 355.881L-65.4966 356.761C-66.4113 355.383 -66.9622 353.797 -67.0978 352.149ZM-57.7271 361.846C-59.0475 361.499 -60.3257 361.007 -61.5385 360.38C-62.5679 359.836 -63.5043 359.132 -64.3125 358.294L-62.7902 357.606C-56.0243 354.562 -48.9878 351.427 -42.3459 347.717C-41.2182 349.273 -40.0229 350.784 -38.8276 352.228C-45.0523 355.272 -51.3445 358.463 -57.5241 361.7C-57.6034 361.73 -57.6734 361.781 -57.7271 361.846ZM79.6209 262.275C78.7413 263.177 77.8731 264.09 76.9822 264.992C75.9109 266.12 74.8058 267.248 73.6895 268.375C72.8437 269.255 71.9529 270.146 71.0959 271.025C68.1302 274.036 65.1419 277.058 62.131 280.047C58.7782 283.384 55.3952 286.707 51.9822 290.015C48.5992 293.319 45.2163 296.612 41.7657 299.893L39.9614 301.618C37.1536 304.268 34.3232 307.167 31.4476 310.268C26.9608 315.179 22.1742 319.807 17.1152 324.126C2.45571 335.944 -11.4482 347.131 -29.4568 356.975C-36.7978 360.989 -46.6986 363.741 -55.032 362.444C-49.3937 359.523 -43.6878 356.637 -38.0495 353.84C-37.8959 353.813 -37.7565 353.733 -37.6549 353.615C-37.2602 354.054 -36.9106 354.494 -36.5272 354.911C-36.45 355.006 -36.3542 355.084 -36.2455 355.141C-36.1369 355.197 -36.0178 355.23 -35.8957 355.238C-35.7753 355.248 -35.654 355.234 -35.5396 355.195C-35.4251 355.156 -35.3199 355.094 -35.2304 355.013C-35.0438 354.851 -34.9268 354.624 -34.9037 354.378C-34.8806 354.132 -34.9532 353.887 -35.1064 353.693C-39.3463 348.721 -44.1276 343.094 -46.1686 336.463C-46.2009 336.348 -46.2559 336.24 -46.3306 336.147C-46.4053 336.053 -46.498 335.976 -46.6032 335.919C-46.7085 335.862 -46.8241 335.827 -46.9431 335.816C-47.0622 335.805 -47.1823 335.818 -47.2963 335.854C-47.528 335.922 -47.7237 336.078 -47.8417 336.289C-47.9598 336.5 -47.9906 336.748 -47.9278 336.982C-47.691 337.794 -47.3978 338.583 -47.082 339.372C-49.0103 340.5 -50.7807 341.56 -52.5511 342.586C-54.5584 343.714 -56.5656 344.841 -58.7645 346.206C-61.3457 347.914 -64.1447 349.268 -67.0866 350.232C-67.052 349.806 -66.9841 349.384 -66.8836 348.969C-66.0482 346.271 -64.4646 343.866 -62.3166 342.034C-59.3847 339.97 -56.543 338.008 -53.769 336.091C-50.1154 333.554 -46.5633 331.073 -43.0225 328.513C-42.7518 328.885 -42.515 329.223 -42.2895 329.494C-42.2142 329.6 -42.1167 329.688 -42.0037 329.753C-41.8907 329.817 -41.765 329.856 -41.6355 329.866C-41.4078 329.874 -41.1845 329.802 -41.004 329.663C-40.8088 329.512 -40.6815 329.289 -40.6498 329.044C-40.6182 328.799 -40.6847 328.551 -40.8348 328.355C-41.0378 328.107 -41.2521 327.791 -41.5227 327.43C-41.7933 327.07 -42.188 326.438 -42.5376 325.886C-43.3044 324.69 -44.0825 323.427 -44.6012 322.503C-45.1965 321.577 -45.6346 320.56 -45.898 319.492C-46.0133 319.028 -46.0328 318.546 -45.9552 318.075C-45.8777 317.604 -45.7047 317.154 -45.4469 316.752C-44.4884 315.421 -42.4135 315.342 -40.9363 315.951C-39.2638 316.815 -37.7832 318.007 -36.5836 319.458L-35.58 320.653L-34.5538 321.849C-34.4918 321.926 -34.4099 321.984 -34.317 322.018C-34.1462 322.138 -33.9374 322.192 -33.7297 322.169C-33.5221 322.146 -33.3299 322.048 -33.1894 321.894C-33.0683 321.784 -32.9807 321.642 -32.9369 321.484C-32.893 321.326 -32.8945 321.16 -32.9413 321.003C-29.8064 318.522 -26.649 315.895 -23.4803 313.042C-4.74998 296.217 12.4354 274.904 28.8766 247.976C28.9999 247.949 29.116 247.895 29.2171 247.819C29.3182 247.743 29.402 247.647 29.463 247.536L32.3723 242.36L57.4175 247.187C67.0082 249.205 76.3191 252.378 85.1464 256.636C83.3309 258.475 81.5041 260.38 79.6209 262.275ZM263.778 290.692C263.327 294.176 262.898 297.683 262.526 301.19L262.131 305.137C261.816 308.362 261.511 311.553 261.274 314.778C241.755 308.813 229.892 302.07 218.424 295.608C213.913 293.026 209.188 290.365 204.125 287.805C196.885 284.174 189.24 280.227 182.147 275.739C177.636 272.886 173.182 269.706 168.897 266.639C151.644 254.302 133.85 241.582 117.431 227.554C118.006 227.103 118.559 226.663 119.19 226.224C119.822 225.784 120.171 225.457 120.69 225.096C121.434 224.532 122.178 223.968 122.945 223.495H123.013C124.084 222.773 125.178 222.074 126.294 221.409C127.151 220.867 128.054 220.337 128.944 219.841C129.835 219.345 130.726 218.86 131.639 218.409C132.857 217.8 134.087 217.214 135.338 216.684C136.24 216.278 137.142 215.928 138.067 215.556C138.992 215.184 139.747 214.947 140.627 214.654C140.706 214.62 140.789 214.597 140.875 214.586C141.721 214.293 142.555 214.056 143.423 213.831C143.599 213.766 143.78 213.717 143.965 213.684C144.856 213.436 145.758 213.222 146.671 213.03C146.794 213.006 146.91 212.958 147.013 212.887C147.116 212.817 147.204 212.726 147.271 212.62C147.337 212.515 147.381 212.396 147.4 212.273C147.42 212.149 147.413 212.023 147.382 211.902C147.325 211.659 147.175 211.448 146.964 211.315C146.753 211.182 146.497 211.138 146.254 211.192C134.752 213.628 124.907 219.221 115.965 226.325C115.469 226.697 114.973 227.103 114.499 227.532C106.222 234.298 98.7121 242.191 91.2696 250.085L90.2772 251.145C89.003 252.498 87.7287 253.84 86.4319 255.193C77.3459 250.709 67.7244 247.405 57.8008 245.36L52.5686 244.356L48.8473 243.623L42.4084 242.405L38.6759 241.695L33.3421 240.669L49.4111 212.004C57.0341 198.472 64.9276 184.365 73.8361 171.284C75.3471 169.029 76.892 166.887 78.4369 164.676C80.5343 161.688 82.7332 158.598 84.7856 155.497C88.3134 150.186 91.569 144.698 94.5397 139.056C95.5885 139.485 96.6597 139.868 97.7648 140.184C98.8699 140.5 100.246 140.872 101.531 141.142L102.873 141.413H103.132C103.381 141.469 103.629 141.503 103.877 141.548C104.305 141.616 104.722 141.684 105.151 141.729C105.573 141.804 105.998 141.856 106.425 141.887C106.978 141.966 107.553 142.011 108.105 142.056H108.218C108.951 142.112 109.718 142.157 110.473 142.169C111.229 142.18 111.714 142.169 112.334 142.169H113.89C113.943 142.163 113.996 142.163 114.048 142.169H115.39C115.537 142.169 115.706 142.169 115.875 142.169H116.36H116.732C116.867 142.169 116.991 142.169 117.127 142.169H117.814C118.074 142.169 118.344 142.169 118.604 142.101L119.461 142.011C119.461 142.011 119.461 142.011 119.54 142.011C120.194 141.954 120.859 141.864 121.513 141.785C121.949 141.745 122.382 141.677 122.81 141.582C123.261 141.582 123.712 141.469 124.163 141.368C124.306 141.363 124.446 141.337 124.58 141.289H124.851C125.37 141.199 125.9 141.086 126.43 140.962H126.588C126.982 140.894 127.366 140.793 127.715 140.714L128.335 140.579L128.753 140.477L130.501 140.015C130.997 139.891 131.493 139.755 131.989 139.597H132.158L133.759 139.101L134.041 139.011C134.583 138.831 135.113 138.65 135.654 138.447L136.285 138.21C136.917 137.985 137.548 137.737 138.157 137.477C138.343 137.42 138.524 137.348 138.699 137.263C139.319 137.004 139.928 136.745 140.525 136.451C141.969 135.797 143.401 135.064 144.765 134.298C146.13 133.531 147.438 132.708 148.701 131.817C150.494 130.57 152.214 129.222 153.854 127.78C154.35 127.374 154.813 126.956 155.253 126.528C155.446 126.377 155.627 126.211 155.794 126.032C156.313 125.547 156.82 125.039 157.305 124.521C157.538 124.303 157.76 124.073 157.97 123.833L158.32 123.483C158.635 123.134 158.94 122.784 159.256 122.412L159.38 122.254C159.617 121.995 159.865 121.702 160.09 121.42L160.259 121.228L160.496 120.935C160.541 120.892 160.579 120.842 160.609 120.788C161.094 120.191 161.545 119.593 162.007 118.973C162.044 118.93 162.078 118.884 162.109 118.837L162.74 117.958C162.999 117.586 163.259 117.191 163.507 116.83C163.913 116.221 164.296 115.601 164.635 114.981L164.702 114.845C164.905 114.507 165.097 114.191 165.277 113.831L165.469 113.515C165.559 113.368 165.616 113.222 165.683 113.086C165.886 112.748 166.055 112.398 166.236 112.06C166.349 111.863 166.45 111.66 166.54 111.451C166.8 110.978 167.025 110.481 167.239 109.985C167.239 109.985 167.239 109.985 167.239 109.929C167.442 109.478 167.645 109.016 167.837 108.553C168.029 108.091 168.108 107.933 168.221 107.606C168.333 107.279 168.525 106.805 168.683 106.411C168.74 106.259 168.789 106.105 168.829 105.948C168.968 105.602 169.089 105.248 169.19 104.888C169.326 104.482 169.45 104.088 169.574 103.682C169.621 103.573 169.655 103.46 169.675 103.343C169.878 102.701 170.059 102.024 170.239 101.37C170.555 100.242 170.825 98.9907 171.051 97.7616V97.7052C171.141 97.288 171.231 96.8482 171.299 96.4084C173.667 96.8144 176.137 97.1414 178.663 97.4346C192.263 98.9284 206.003 98.6023 219.517 96.4648C228.436 94.8996 237.264 92.8517 245.961 90.3304C251.25 88.8982 256.696 87.4323 262.12 86.2031C266.281 85.2559 270.138 84.2974 273.859 83.3164C273.363 84.6921 272.844 86.0678 272.337 87.4097L272.269 87.5902C271.66 89.1576 271.04 90.7701 270.465 92.4165C269.67 94.691 269.011 97.0105 268.491 99.3628C267.373 104.375 266.597 109.457 266.168 114.575C265.943 117.766 265.853 124.16 265.785 129.313C265.785 132.583 265.706 135.448 265.616 136.891C255.46 140.41 245.042 143.121 234.459 144.999C231.486 139.725 228.926 134.228 226.802 128.558C226.771 128.43 226.713 128.311 226.633 128.207C226.552 128.104 226.45 128.018 226.334 127.957C226.218 127.896 226.09 127.861 225.959 127.853C225.828 127.845 225.696 127.865 225.574 127.912C225.451 127.959 225.34 128.031 225.247 128.124C225.155 128.217 225.083 128.329 225.037 128.452C224.991 128.575 224.972 128.706 224.981 128.837C224.99 128.968 225.026 129.096 225.088 129.212C227.297 135.105 229.97 140.814 233.083 146.284C233.083 146.352 233.083 146.42 233.162 146.487C233.198 146.541 233.244 146.586 233.297 146.623C235.606 150.562 238.517 154.116 241.924 157.155C247.37 161.891 254.407 165.252 264.071 167.732C275.628 170.742 287.618 171.734 299.513 170.664C296.801 174.756 294.458 179.081 292.51 183.587C291.992 184.715 291.495 185.842 290.999 186.97C290.841 187.297 290.695 187.635 290.548 187.985C290.402 188.335 290.278 188.662 290.12 189.011C289.962 189.361 289.714 189.958 289.511 190.432C289.308 190.906 289.105 191.391 288.913 191.875C288.146 193.713 287.391 195.574 286.658 197.514C285.925 199.453 285.192 201.404 284.47 203.377C283.647 205.633 282.846 207.888 282.046 210.267C282.046 210.267 282.046 210.335 282.046 210.369C281.662 211.497 281.279 212.624 280.918 213.752C280.027 216.424 279.181 219.153 278.347 221.916C278.043 222.953 277.716 224.002 277.434 225.062C277.152 226.122 276.791 227.216 276.486 228.31C276.182 229.404 275.866 230.475 275.607 231.569C275.607 231.682 275.55 231.806 275.505 231.918C274.987 233.813 274.49 235.707 274.006 237.624C273.915 237.94 273.825 238.267 273.746 238.583C273.273 240.477 272.81 242.394 272.348 244.311C272.269 244.65 272.213 244.954 272.122 245.27C271.716 246.95 271.333 248.653 270.995 250.367C270.916 250.682 270.859 250.976 270.792 251.291C270.656 251.912 270.51 252.554 270.397 253.175C270.047 254.753 269.709 256.321 269.382 257.899C267.454 267.417 265.785 277.137 264.432 286.982L263.778 290.692ZM571.875 248.968C574.96 246.998 577.913 244.828 580.716 242.473L581.73 241.582C582.78 240.566 583.911 239.638 585.113 238.808C589.421 236 595.003 235.775 599.908 235.899C600.855 235.899 601.825 235.967 602.772 236.023C604.227 236.102 605.682 236.203 607.136 236.35H607.362C608.14 236.406 608.929 236.485 609.707 236.587C610.783 236.7 611.854 236.835 612.921 236.993C615.941 237.296 618.885 238.116 621.627 239.417C622.921 240.046 624.065 240.947 624.98 242.058C625.894 243.169 626.559 244.465 626.927 245.856C627.603 249.025 626.081 252.363 624.874 254.607C624.615 255.114 624.333 255.61 624.029 256.106L623.905 256.321C623.905 256.321 623.905 256.377 623.905 256.4L623.837 256.524L623.769 256.636L623.702 256.738C623.685 256.785 623.658 256.827 623.623 256.862C623.593 256.913 623.559 256.962 623.521 257.009C623.525 257.017 623.527 257.027 623.527 257.037C623.527 257.047 623.525 257.056 623.521 257.065L623.454 257.166L623.386 257.279C623.07 257.787 622.754 258.283 622.405 258.802C622.055 259.32 621.773 259.715 621.424 260.177C620.059 262.056 618.575 263.846 616.981 265.534C616.857 265.68 616.733 265.816 616.597 265.951C616.237 266.357 615.831 266.751 615.47 267.146C615.109 267.541 614.726 267.89 614.342 268.274C613.959 268.657 613.451 269.12 612.978 269.537C612.121 270.304 611.23 271.07 610.294 271.792C609.358 272.514 608.411 273.303 607.43 274.047C600.359 279.302 592.567 283.497 584.504 287.692C580.223 290.005 575.819 292.083 571.311 293.917C566.76 295.576 562.126 297.003 557.43 298.19L539.229 303.163C541.31 301.508 543.284 299.723 545.138 297.818C545.476 297.457 545.86 297.097 546.266 296.691C546.407 296.541 546.493 296.347 546.507 296.141C546.521 295.935 546.464 295.731 546.345 295.563C548.487 290.703 549.096 283.892 547.957 276.72C547.655 275.362 547.173 274.05 546.525 272.818C546.254 272.254 545.973 271.691 545.781 271.161C544.212 267.288 541.404 264.045 537.797 261.936C549.973 260.131 561.614 255.71 571.92 248.98L571.875 248.968ZM457.147 272.717L461.139 272.367C464.996 272.029 468.864 271.634 472.686 271.24C474.04 271.104 475.37 270.946 476.69 270.766L481.065 270.168C482.847 269.931 484.617 269.695 486.41 269.435L489.793 268.95C491.056 268.759 492.319 268.578 493.559 268.375L495.612 268.048C500.874 267.206 506.114 266.274 511.331 265.252C518.807 263.808 525.788 262.996 533.884 262.23C536.07 263.067 538.06 264.346 539.729 265.988C541.397 267.629 542.709 269.598 543.582 271.77C543.807 272.322 544.089 272.897 544.383 273.54C544.956 274.605 545.381 275.743 545.646 276.923C546.897 284.625 545.95 292.158 543.21 296.578C540.282 299.551 537.059 302.219 533.591 304.539C524.333 310.764 513.88 314.688 505.005 317.597C497.179 320.157 489.612 322.469 482.238 324.566C480.806 324.983 479.373 325.401 477.975 325.773C472.777 327.227 467.714 328.558 462.729 329.765L458.591 330.768C456.02 331.377 453.483 331.896 450.945 332.494C457.542 314.068 456.065 290.658 447.111 273.303C450.618 273.235 453.889 272.999 457.147 272.717ZM402.242 271.916C402.795 272.04 403.37 272.175 403.877 272.266L404.667 272.424C405.309 272.559 405.952 272.683 406.572 272.784C406.956 272.875 407.339 272.942 407.7 273.01C408.32 273.123 408.94 273.235 409.549 273.314L410.835 273.506C410.883 273.516 410.933 273.516 410.981 273.506C411.647 273.596 412.335 273.687 413 273.754C413.071 273.765 413.143 273.765 413.214 273.754L414.116 273.867L416.744 274.104C419.619 274.318 422.461 274.386 425.257 274.329C431.967 274.183 438.631 273.89 445.273 273.495C454.509 290.816 455.986 314.665 448.972 333.035C430.412 337.089 411.558 339.653 392.589 340.703C392.127 340.703 391.642 340.703 391.157 340.703C390.672 340.703 390.233 340.703 389.77 340.703C389.361 340.725 388.951 340.725 388.541 340.703H388.338C387.47 340.703 386.59 340.703 385.699 340.624C384.809 340.545 384.143 340.568 383.343 340.511C382.081 336.112 381.45 331.556 381.471 326.979C383.455 300.423 391.744 287.816 402.22 271.837L402.242 271.916ZM368.683 257.042C362.626 253.83 356.74 250.307 351.047 246.488C350.945 246.42 350.832 246.373 350.712 246.35C350.593 246.327 350.47 246.327 350.35 246.351C350.231 246.375 350.117 246.422 350.016 246.49C349.915 246.558 349.829 246.646 349.761 246.747C349.694 246.848 349.647 246.962 349.624 247.082C349.6 247.201 349.601 247.324 349.625 247.443C349.649 247.563 349.696 247.676 349.764 247.777C349.832 247.878 349.919 247.965 350.021 248.032C367.533 259.726 384.369 267.563 400.325 271.465C399.953 272.051 399.547 272.593 399.197 273.213C398.848 273.833 398.464 274.341 398.07 274.916L397.337 276.043C395.397 279.043 393.559 281.986 391.856 285.008C391.428 285.775 391.011 286.53 390.605 287.263C390.39 287.636 390.187 288.03 389.996 288.391C389.522 289.293 389.06 290.184 388.631 291.12C388.485 291.368 388.372 291.639 388.237 291.909C388.022 292.372 387.797 292.868 387.594 293.33C387.391 293.793 387.165 294.3 386.94 294.785C386.647 295.45 386.376 296.138 386.105 296.826C385.835 297.514 385.496 298.348 385.237 299.081C385.167 299.247 385.107 299.416 385.057 299.589C385 299.699 384.959 299.817 384.933 299.938C384.741 300.423 384.572 300.931 384.425 301.438C384.357 301.585 384.335 301.709 384.279 301.855L384.143 302.239C384.042 302.566 383.929 302.915 383.839 303.254C383.839 303.31 383.839 303.344 383.839 303.4C383.647 303.987 383.478 304.528 383.32 305.171C383.265 305.318 383.219 305.468 383.185 305.622C382.982 306.321 382.801 307.009 382.643 307.708C382.384 308.689 382.159 309.715 381.922 310.741C381.685 311.767 381.426 313.143 381.2 314.384C381.053 315.218 380.907 316.041 380.794 316.909C380.681 317.778 380.535 318.623 380.422 319.503C380.185 321.273 379.982 323.123 379.824 325.029C379.757 325.592 379.723 326.156 379.678 326.765V327.284V328.49V328.806C379.689 328.858 379.689 328.912 379.678 328.964C379.678 329.483 379.678 330.092 379.779 330.622C379.779 330.701 379.779 330.768 379.779 330.87C379.779 331.355 379.869 331.862 379.926 332.381C380.106 333.982 380.354 335.64 380.648 337.185C380.715 337.489 380.772 337.794 380.839 338.098C380.907 338.402 380.907 338.391 380.929 338.549C380.952 338.707 380.929 338.808 381.031 338.944C381.138 339.477 381.273 340.004 381.437 340.522C377.716 340.241 373.949 339.79 370.262 339.395C366.259 338.944 362.143 338.459 358.241 338.188C326.577 336.057 295.656 325.976 268.356 317.079L267.555 316.819L263.158 315.387C263.315 313.312 263.496 311.26 263.688 309.208C263.834 307.482 264.003 305.768 264.184 304.065C264.274 303.197 264.353 302.351 264.454 301.506C264.556 300.66 264.657 299.803 264.736 298.935C264.883 297.593 265.041 296.24 265.21 294.898C265.413 293.217 265.616 291.515 265.853 289.868C266.089 288.222 266.292 286.485 266.552 284.873C266.721 283.542 266.913 282.245 267.127 280.937C267.428 278.893 267.747 276.863 268.085 274.848C268.153 274.498 268.198 274.149 268.254 273.799C268.525 272.198 268.818 270.608 269.1 269.029C269.202 268.511 269.292 268.014 269.382 267.496C269.382 267.225 269.484 266.966 269.517 266.695C269.788 265.15 270.093 263.628 270.386 262.106C270.51 261.44 270.656 260.786 270.78 260.121C271.153 258.238 271.547 256.343 271.908 254.483C272.404 252.115 272.934 249.758 273.464 247.435C273.904 245.529 274.344 243.623 274.806 241.797C275.859 237.557 276.956 233.384 278.099 229.28C278.55 227.656 279.012 226.032 279.486 224.431C279.858 223.179 280.23 221.939 280.614 220.721C280.692 220.484 280.76 220.247 280.839 220.01C281.11 219.086 281.403 218.172 281.696 217.27L282.136 215.906C282.553 214.598 282.959 213.301 283.399 212.038C284.425 208.948 285.474 205.915 286.579 202.949C286.996 201.821 287.436 200.615 287.876 199.476C288.112 198.878 288.327 198.258 288.575 197.683C288.595 197.637 288.618 197.591 288.642 197.548C289.127 196.273 289.635 195.01 290.142 193.77C290.65 192.529 291.135 191.368 291.631 190.195C292.454 188.222 293.311 186.316 294.157 184.433C296.271 179.549 298.866 174.888 301.904 170.518C302.069 170.506 302.235 170.506 302.4 170.518C303.279 170.518 304.17 170.45 305.05 170.382C305.501 170.382 305.974 170.382 306.403 170.281C307.091 170.281 307.79 170.179 308.467 170.123H309.121C309.481 170.067 309.831 170.044 310.169 169.988C311.59 169.864 313 169.683 314.398 169.48L315.266 169.356L316.146 169.221H316.281H316.507L317.905 168.995L319.281 168.77L322.224 168.229C323.352 168.014 324.479 167.789 325.663 167.541C326.317 167.417 326.96 167.281 327.592 167.123C328.595 166.92 329.576 166.695 330.557 166.469L333.478 165.804C350.855 161.722 368.232 156.569 385.068 151.596C400.754 146.972 416.89 142.202 433.083 138.267C428.585 154.049 429.01 170.827 434.301 186.361C435.778 190.579 437.583 194.706 439.331 198.686L446.66 215.285L368.683 257.042ZM523.397 187.85C515.503 189.519 507.407 191.402 499.017 193.567C490.588 195.61 482.3 198.201 474.209 201.325C473.081 201.799 471.875 202.284 470.713 202.791C469.89 203.152 469.055 203.535 468.232 203.919L465.74 205.046C464.191 205.798 462.662 206.55 461.151 207.302C461.038 207.351 460.929 207.408 460.824 207.471C459.369 208.215 457.926 208.959 456.482 209.726C454.622 210.718 452.761 211.711 450.923 212.714L448.397 214.068L441.157 197.604C439.409 193.657 437.617 189.575 436.173 185.425C430.882 169.911 430.57 153.132 435.282 137.432L437.064 137.015C438.485 136.677 439.883 136.35 441.304 136.034C464.947 130.77 488.99 127.5 513.18 126.257C521.57 138.132 525.912 154.37 525.788 173.382C525.686 178.31 525.393 183.339 523.397 187.85ZM626.983 181.027L625.416 180.858H625.325C622.608 180.554 619.89 180.317 617.139 180.103L616.011 180.024C615.368 179.967 614.703 179.922 614.049 179.888L612.064 179.776C610.283 179.685 608.501 179.607 606.719 179.539H605.129H604.532C602.987 179.539 601.453 179.471 599.908 179.471C598.713 179.471 597.54 179.471 596.345 179.471H595.713C595.623 179.466 595.533 179.466 595.443 179.471H591.823L589.218 179.539C589.011 179.528 588.804 179.528 588.598 179.539C587.47 179.539 586.264 179.607 585.091 179.663L580.806 179.888C580.152 179.888 579.498 179.956 578.844 180.001L577.276 180.103L576.149 180.182C575.021 180.249 573.893 180.351 572.698 180.441C571.052 180.588 569.371 180.734 567.68 180.903C566.969 180.903 566.259 181.039 565.526 181.118C563.643 181.309 561.748 181.535 559.888 181.76C558.027 181.986 556.076 182.234 554.137 182.505C552.817 182.662 551.498 182.865 550.167 183.057C546.548 183.587 542.883 184.185 539.139 184.828L535.215 185.538C532.046 186.113 528.855 186.756 525.607 187.421C527.08 182.939 527.755 178.233 527.603 173.517C527.727 154.64 523.487 138.368 515.323 126.269C519.078 126.088 522.844 125.964 526.6 125.896C528.144 125.896 529.678 125.829 531.223 125.829C535.023 125.761 538.823 125.772 542.612 125.829L546.379 125.919C548.262 125.919 550.134 125.998 552.017 126.077C553.9 126.156 555.4 126.201 557.136 126.302C558.264 126.302 559.392 126.415 560.519 126.483L564.534 126.731C571.811 127.205 579.08 127.866 586.343 128.716L590.74 129.246C592.195 129.437 593.661 129.618 595.116 129.821C596.57 130.024 598.048 130.227 599.502 130.452C600.63 130.61 601.758 130.791 602.818 130.96C603.877 131.129 604.926 131.287 605.975 131.467C607.52 131.715 609.053 131.975 610.587 132.245C612.121 132.516 613.677 132.786 615.199 133.068L617.973 133.598C618.853 133.756 619.732 133.937 620.612 134.117C624.701 134.929 628.787 135.801 632.869 136.733L637.256 137.771C639.049 138.188 640.853 138.639 642.646 139.09L642.759 139.248C646.74 142.473 648.555 148.472 647.36 154.539C646.232 160.425 642.691 165.567 639.466 169.796C636.241 174.025 632.238 178.49 626.983 181.016V181.027ZM704.464 183.023C701.78 184.794 698.352 185.087 694.789 185.279C693.176 185.335 691.406 185.437 689.624 185.448H687.797H685.79C685.474 185.448 685.136 185.448 684.798 185.448C684.046 185.448 683.324 185.414 682.633 185.346C678.325 185.019 674.074 184.286 669.89 183.565C663.237 182.437 656.358 181.197 649.491 181.76C647.707 181.873 645.918 181.873 644.135 181.76C642.354 181.665 640.57 181.665 638.79 181.76C635.917 181.911 633.036 181.794 630.186 181.411C634.346 178.583 637.976 175.044 640.91 170.957C644.293 166.548 647.957 161.203 649.198 154.922C649.769 152.347 649.779 149.679 649.229 147.099C648.678 144.519 647.579 142.088 646.007 139.97C647.303 140.308 648.6 140.612 649.897 140.962C650.098 141.029 650.316 141.029 650.517 140.962L657.734 142.789C657.807 142.847 657.887 142.896 657.971 142.935C658.612 146.732 658.559 150.614 657.813 154.392C657.713 154.729 657.686 155.082 657.734 155.43C657.813 155.857 658.013 156.252 658.311 156.568C658.609 156.885 658.992 157.108 659.414 157.211C659.611 157.276 659.816 157.314 660.023 157.324C660.648 157.344 661.267 157.207 661.825 156.925C662.382 156.643 662.86 156.226 663.215 155.712C663.875 154.692 664.295 153.535 664.444 152.329C664.885 149.789 665.096 147.215 665.075 144.638L667.454 145.247C668.109 145.405 668.763 145.585 669.417 145.766C669.864 149.145 669.746 152.574 669.067 155.915C668.989 156.251 668.97 156.598 669.011 156.941C669.087 157.37 669.287 157.768 669.585 158.086C669.883 158.404 670.267 158.629 670.691 158.734C670.89 158.789 671.094 158.823 671.3 158.835C671.923 158.852 672.54 158.715 673.096 158.435C673.653 158.156 674.132 157.743 674.491 157.234C675.146 156.211 675.566 155.056 675.72 153.851C676.075 151.813 676.278 149.751 676.329 147.683C676.622 147.758 676.916 147.848 677.209 147.953C677.93 148.19 678.652 148.438 679.396 148.709C679.659 151.661 679.492 154.635 678.9 157.538C678.816 157.87 678.797 158.215 678.844 158.553C678.919 158.985 679.117 159.385 679.416 159.705C679.714 160.026 680.099 160.252 680.524 160.358C680.723 160.413 680.927 160.447 681.133 160.459C681.754 160.477 682.37 160.34 682.925 160.061C683.481 159.781 683.957 159.368 684.313 158.858C684.982 157.841 685.406 156.683 685.553 155.475C685.779 154.133 685.959 152.768 686.061 151.393C687.617 152.069 689.263 152.847 691.022 153.648C695.159 155.471 699.026 157.854 702.513 160.73C703.386 161.515 704.203 162.359 704.96 163.256L705.017 163.323C705.199 163.526 705.369 163.741 705.524 163.966L706.02 164.643C706.268 164.992 706.516 165.364 706.731 165.77C707.031 166.255 707.306 166.756 707.554 167.27C707.633 167.417 707.712 167.597 707.779 167.744C707.779 167.744 707.847 167.89 707.779 167.744C707.903 168.001 708.012 168.264 708.106 168.533C708.253 168.86 708.354 169.176 708.467 169.503C708.467 169.503 708.467 169.582 708.467 169.616C708.592 169.984 708.69 170.361 708.76 170.743C708.862 171.113 708.933 171.49 708.975 171.871C709.64 176.303 707.836 180.802 704.464 183.012V183.023Z" fill="#012466"/>
<path d="M57.4397 247.187L32.3945 242.36L29.4852 247.536C29.4242 247.647 29.3404 247.743 29.2393 247.819C29.1382 247.895 29.0221 247.949 28.8988 247.976C12.4351 274.904 -4.75032 296.217 -23.5596 313.075C-26.7283 315.928 -29.8857 318.556 -33.0206 321.037C-32.9738 321.193 -32.9722 321.36 -33.0161 321.518C-33.06 321.675 -33.1476 321.817 -33.2686 321.927C-33.4092 322.082 -33.6013 322.18 -33.809 322.203C-34.0167 322.226 -34.2255 322.172 -34.3963 322.052C-34.4892 322.018 -34.5711 321.959 -34.6331 321.882L-35.6593 320.687L-36.6629 319.492C-37.8625 318.041 -39.3431 316.848 -41.0156 315.985C-42.4703 315.376 -44.5452 315.455 -45.5262 316.785C-45.784 317.187 -45.957 317.638 -46.0345 318.109C-46.1121 318.58 -46.0926 319.062 -45.9773 319.526C-45.7139 320.594 -45.2757 321.611 -44.6805 322.536C-44.1618 323.439 -43.3837 324.701 -42.6169 325.919C-42.2673 326.472 -41.9064 327.047 -41.602 327.464C-41.2975 327.881 -41.1171 328.141 -40.9141 328.389C-40.7639 328.585 -40.6974 328.833 -40.7291 329.078C-40.7608 329.323 -40.8881 329.545 -41.0833 329.697C-41.2638 329.836 -41.4871 329.908 -41.7147 329.9C-41.8443 329.889 -41.97 329.851 -42.083 329.786C-42.196 329.722 -42.2935 329.634 -42.3688 329.528C-42.5943 329.257 -42.8311 328.919 -43.1018 328.547C-46.6426 331.107 -50.1947 333.587 -53.8483 336.125C-56.6223 338.042 -59.4865 340.004 -62.3959 342.067C-64.5438 343.9 -66.1275 346.305 -66.9629 349.002C-67.0352 349.408 -67.0766 349.819 -67.0869 350.232C-64.1568 349.266 -61.3693 347.912 -58.7987 346.206C-56.5434 344.864 -54.5925 343.714 -52.5853 342.586C-50.8149 341.56 -49.0445 340.545 -47.1162 339.372C-47.4319 338.583 -47.7251 337.794 -47.9619 336.982C-48.0248 336.748 -47.9939 336.5 -47.8759 336.289C-47.7579 336.078 -47.5621 335.922 -47.3305 335.854C-47.2165 335.818 -47.0964 335.805 -46.9773 335.816C-46.8582 335.827 -46.7426 335.862 -46.6374 335.919C-46.5322 335.976 -46.4395 336.053 -46.3648 336.147C-46.2901 336.24 -46.235 336.348 -46.2028 336.463C-44.1843 343.093 -39.4369 348.72 -35.1405 353.693C-34.9873 353.887 -34.9147 354.132 -34.9378 354.378C-34.9609 354.624 -35.078 354.851 -35.2646 355.013C-35.354 355.094 -35.4593 355.156 -35.5737 355.195C-35.6882 355.234 -35.8095 355.248 -35.9299 355.238C-36.052 355.23 -36.171 355.197 -36.2797 355.141C-36.3883 355.084 -36.4842 355.006 -36.5614 354.911C-36.9222 354.494 -37.2718 354.054 -37.689 353.614C-37.7654 353.721 -37.8712 353.804 -37.9935 353.851C-43.6318 356.648 -49.349 359.49 -54.9759 362.455C-46.6426 363.718 -36.7418 361.001 -29.4008 356.986C-11.3584 347.142 2.4892 335.955 17.1712 324.138C22.2302 319.818 27.0169 315.19 31.5037 310.279C34.4356 307.178 37.2096 304.28 40.0174 301.63L41.8217 299.904C45.2047 296.623 48.6665 293.33 52.0382 290.026C55.4099 286.722 58.8041 283.396 62.1871 280.058C65.1979 277.069 68.1862 274.047 71.1519 271.037C72.0089 270.157 72.8998 269.266 73.7455 268.387C74.8732 267.259 76.0008 266.131 77.0383 265.004C77.9291 264.101 78.7974 263.188 79.677 262.286C81.515 260.392 83.3418 258.486 85.1574 256.591C76.3316 252.349 67.0246 249.191 57.4397 247.187Z" fill="white"/>
<path d="M71.1411 271.025C68.1754 274.036 65.1871 277.058 62.1763 280.046C58.8234 283.384 55.4404 286.707 52.0274 290.015C48.6444 293.319 45.2615 296.611 41.8109 299.893C39.3977 293.68 36.7477 283.677 41.2696 276.832C47.3251 267.732 66.0103 270.168 71.1411 271.025Z" fill="#012466" fill-opacity="0.8"/>
<path d="M440.289 5.99308L424.919 20.2691C423.952 21.2267 422.907 22.1018 421.795 22.8853C420.213 21.2729 418.472 19.8258 416.597 18.5664C418.484 17.0628 420.288 15.6345 422.009 14.2813C426.655 10.5826 431.031 7.09817 436.06 3.625C436.899 3.88272 437.709 4.23056 438.473 4.66245C439.138 5.01841 439.749 5.46637 440.289 5.99308Z" fill="white"/>
<path d="M443.334 11.3726C438.023 17.3378 432.452 22.5138 426.577 27.9716L426.476 28.0731C426.427 28.1192 426.385 28.1725 426.352 28.231C425.391 26.8053 424.308 25.4659 423.115 24.2278C424.194 23.4364 425.215 22.5697 426.171 21.6342L441.507 7.42578C442.362 8.61324 442.982 9.95277 443.334 11.3726Z" fill="white"/>
<path d="M443.706 13.729C438.631 19.2996 433.376 24.2274 427.84 29.3695C427.653 29.5194 427.424 29.6063 427.186 29.6176C427.731 30.5193 428.213 31.4574 428.629 32.4254C428.723 32.6499 428.725 32.9025 428.635 33.1284C428.544 33.3543 428.368 33.5352 428.144 33.632C428.011 33.6969 427.863 33.7242 427.716 33.711C427.547 33.7008 427.385 33.6437 427.248 33.546C427.11 33.4483 427.003 33.3141 426.938 33.1584C425.602 30.1675 423.725 27.4493 421.401 25.1408L420.961 24.701C419.529 23.2689 415.763 19.5026 411.94 18.3411C411.718 18.2614 411.533 18.1016 411.423 17.893C411.312 17.6844 411.283 17.4421 411.342 17.2134C411.375 17.0981 411.43 16.9903 411.504 16.8965C411.579 16.8027 411.671 16.7246 411.776 16.6669C411.881 16.6091 411.996 16.5729 412.115 16.5602C412.235 16.5476 412.355 16.5588 412.47 16.5932C413.31 16.8604 414.124 17.2 414.906 17.6081C416.98 15.9843 418.954 14.4168 420.86 12.9058C425.122 9.52284 429.17 6.30903 433.681 3.09523C429.808 2.52621 425.854 3.0132 422.235 4.50479C416.856 6.59095 412.188 10.222 407.655 13.7515C406.023 15.0295 404.396 16.2812 402.772 17.5066C403.503 18.1615 404.193 18.862 404.836 19.604C404.994 19.7925 405.071 20.0361 405.05 20.2814C405.029 20.5267 404.911 20.7536 404.723 20.9121C404.534 21.0706 404.291 21.1478 404.045 21.1266C403.8 21.1055 403.573 20.9878 403.415 20.7994C402.748 20.0361 402.032 19.3167 401.272 18.6455L399.874 17.3375C398.655 16.2746 397.337 15.3306 395.938 14.5183C395.119 13.9844 394.121 13.7978 393.164 13.9996C392.77 14.1629 392.428 14.431 392.176 14.7749C391.923 15.1189 391.77 15.5254 391.732 15.9504C391.597 17.8111 393.164 19.9536 394.292 21.5887C394.681 22.0776 395.028 22.5981 395.329 23.1449C395.41 23.2499 395.471 23.3682 395.51 23.4944C395.598 23.7208 395.595 23.9722 395.503 24.1968C395.41 24.4213 395.235 24.6018 395.014 24.701C394.87 24.7409 394.718 24.7409 394.574 24.701C394.419 24.6894 394.27 24.6374 394.141 24.5504C394.013 24.4634 393.909 24.3443 393.841 24.2049C390.063 27.0465 386.342 29.8431 382.677 32.5157C374.547 38.526 366.168 44.7394 357.711 51.3249C344.923 60.1995 332.463 64.2478 319.269 68.5329C316.236 69.5139 313.191 70.5175 310.079 71.5775C297.179 76.0205 287.244 79.3696 276.249 82.3466C275.629 84.1621 274.953 85.9551 274.276 87.6917C272.727 91.479 271.475 95.3812 270.532 99.3628C269.446 104.298 268.692 109.301 268.277 114.338C268.063 117.462 267.972 123.844 267.894 128.998C267.894 131.783 267.837 134.275 267.77 135.876C282.361 130.633 296.017 124.182 310.124 117.529C312.21 116.548 314.308 115.533 316.45 114.541C318.593 113.549 320.735 112.523 322.912 111.519C324.242 110.887 325.595 110.279 326.949 109.658C333.252 106.783 338.315 104.212 342.86 101.573L346.863 99.3177C348.893 98.1901 350.99 96.9497 353.11 95.7093L356.301 93.8374L357.61 93.0593C358.816 92.3263 360.034 91.5821 361.218 90.804C363.011 89.6763 364.781 88.5487 366.462 87.421C368.142 86.2934 369.777 85.1657 371.322 84.0381L377.084 79.7079C399.333 63.0525 418.548 48.6636 438.462 28.0614C440.052 26.4376 442.037 22.6374 443.165 19.0402C443.68 17.3202 443.864 15.5177 443.706 13.729Z" fill="white"/>
<path d="M357.575 92.9803L356.267 93.7583L353.075 95.6303C350.955 96.8707 348.858 98.066 346.828 99.2387L342.825 101.494C338.315 104.133 333.218 106.704 326.914 109.579C325.561 110.2 324.208 110.808 322.877 111.44C323.091 105.181 324.963 93.4652 335.518 89.7439C339.163 88.3426 343.107 87.9043 346.971 88.4712C350.834 89.0381 354.486 90.591 357.575 92.9803Z" fill="#012466" fill-opacity="0.8"/>
<g style="mix-blend-mode:multiply" opacity="0.3">
<path d="M168.457 93.5781C167.713 94.063 166.946 94.5479 166.146 95.0102C165.074 95.653 163.969 96.2732 162.819 96.8934C133.399 112.838 115.897 111.463 107.474 108.734C106.831 108.542 106.256 108.305 105.737 108.102C107.316 103.344 108.726 98.5398 109.932 93.6796C110.146 92.8451 110.338 91.9994 110.552 91.1424C110.688 90.5335 110.823 89.9358 110.97 89.3269C111.116 88.7179 111.308 87.7933 111.454 87.0716C112.12 84.0044 112.706 80.9484 113.214 77.8587C113.197 77.7465 113.197 77.6325 113.214 77.5204C113.249 75.9166 113.511 74.3259 113.992 72.7955C113.992 72.6376 114.048 72.491 114.059 72.3219C114.095 72.0911 114.216 71.8819 114.398 71.7355C114.752 70.8021 115.363 69.9885 116.162 69.3895C116.961 68.7906 117.913 68.4309 118.908 68.3525C120.51 68.4045 122.056 68.9566 123.329 69.9312C126.404 71.9877 129.367 74.2086 132.203 76.5844C134.594 78.5127 137.086 80.5086 139.646 82.279C140.469 82.8316 141.281 83.4067 142.115 83.869C142.95 84.3314 143.626 84.7824 144.371 85.2109C145.555 85.8762 146.75 86.5077 147.99 87.0828C148.836 87.5001 149.682 87.8947 150.561 88.2669C150.821 88.3909 151.091 88.4924 151.362 88.6052C152.208 88.966 153.076 89.3156 153.967 89.6426C154.858 89.9696 155.963 90.3643 156.978 90.7026C157.553 90.9169 158.105 91.086 158.759 91.2664C161.947 92.2169 165.184 92.9886 168.457 93.5781Z" fill="#808080"/>
</g>
<path d="M148.611 63.8075C147.923 61.4168 147.258 59.1503 146.739 57.0416C144.676 48.618 142.229 40.2057 139.511 32.0302C139.504 31.9598 139.485 31.891 139.455 31.8273C139.229 31.1619 139.015 30.5079 138.789 29.8651C137.165 25.129 135.406 20.5959 132.023 17.1791C129.712 14.157 126.126 11.71 121.322 9.92827C111.5 6.2634 100.415 6.68063 91.6872 11.0559C87.3161 13.2476 83.5137 16.4246 80.5799 20.3365C80.6063 18.1019 80.0214 15.9027 78.8884 13.9765C77.9747 12.448 76.6337 11.2204 75.0307 10.4449C73.4276 9.66943 71.6327 9.38008 69.8672 9.61253C66.1685 10.244 63.6651 13.3563 62.0977 15.6342C60.1195 18.315 58.7461 21.3927 58.0719 24.6554C57.7098 26.3325 57.6858 28.065 58.0014 29.7515C58.317 31.438 58.9659 33.0446 59.91 34.4772C60.7092 35.611 61.7454 36.5572 62.9469 37.2505C64.1483 37.9437 65.4861 38.3672 66.8676 38.4917C67.623 38.5564 68.3839 38.5031 69.1229 38.3338C71.2711 37.7206 73.2022 36.5127 74.6935 34.8494C74.6827 34.9393 74.6827 35.0301 74.6935 35.12C73.9493 43.1038 76.6444 51.6288 82.8464 61.1688C82.459 61.44 82.11 61.7624 81.809 62.1273L81.6173 62.3528C80.5864 63.3684 79.8466 64.6417 79.4748 66.0402C79.3431 67.0131 79.3431 67.9993 79.4748 68.9721C79.7026 69.8563 80.1727 70.6593 80.8321 71.2909C81.4915 71.9224 82.3141 72.3573 83.2073 72.5468C84.0546 72.7876 84.9231 72.9463 85.8009 73.0204C87.864 73.2318 89.9374 72.7304 91.676 71.5995C93.2659 74.3848 94.5064 76.6627 95.6904 78.7714C97.9457 82.8761 99.874 86.4056 103.449 92.1905C104.92 94.6547 106.603 96.9865 108.478 99.1594C108.939 99.7178 109.436 100.245 109.966 100.738C110.53 101.291 111.094 101.866 111.714 102.351C114.927 105.196 118.948 106.967 123.216 107.414H123.961C125.902 107.452 127.84 107.209 129.712 106.692C132.285 106.066 134.751 105.063 137.03 103.715C142.138 100.558 147.935 96.3515 150.72 90.3186C150.981 89.7567 151.211 89.1807 151.408 88.5932C151.816 87.3935 152.096 86.1536 152.242 84.8945C152.975 78.4669 150.663 70.6861 148.611 63.8075ZM75.3137 31.4326C75.3137 31.4326 75.2573 31.4326 75.2122 31.5002C73.1712 33.857 71.2767 35.8643 68.7959 36.4281C67.4032 36.6668 65.9712 36.4992 64.6712 35.9452C63.3713 35.3913 62.2586 34.4744 61.4662 33.3045C60.6649 32.0764 60.1165 30.7009 59.8532 29.2585C59.5899 27.816 59.6168 26.3354 59.9326 24.9035C60.5852 21.9211 61.8569 19.109 63.6651 16.6491C65.8527 13.4578 67.9389 11.8002 70.2393 11.4055C71.6304 11.2438 73.0385 11.4903 74.292 12.115C75.5454 12.7397 76.59 13.7156 77.2984 14.9238C78.7594 17.4891 79.1638 20.5226 78.4261 23.3812C78.4089 23.4743 78.4089 23.5699 78.4261 23.6631C77.045 26.0833 76.016 28.6881 75.3701 31.3988L75.3137 31.4326ZM76.5767 35.1877C77.3999 25.9296 83.6583 17.1452 92.5104 12.6346C100.787 8.5187 111.308 8.12402 120.702 11.6197C125.663 13.4691 129.215 16.0289 131.257 19.2314C131.316 19.3318 131.396 19.4187 131.491 19.4866C131.587 19.5545 131.695 19.602 131.809 19.6261C132.385 20.3368 132.905 21.0908 133.365 21.8814C130.411 20.1335 125.99 19.7614 123.104 22.5016C122.493 23.1063 121.945 23.7712 121.469 24.4862C120.943 25.3686 120.245 26.1357 119.416 26.7415C117.781 27.7113 115.56 27.1024 114.376 26.6401C113.733 26.3807 113.079 26.0875 112.447 25.8056C111.217 25.155 109.91 24.6624 108.557 24.3397C102.986 23.1105 97.7202 27.046 95.4085 31.5679C92.9615 36.3717 92.9502 41.8972 93.2772 46.6672C93.3449 47.4678 93.4013 48.2572 93.4689 49.0465C93.8749 53.8052 94.1568 57.6618 91.9353 61.4507C90.908 60.5975 89.6748 60.0288 88.359 59.8013C87.0431 59.5737 85.6906 59.6953 84.4364 60.1539C78.4937 50.9184 75.855 42.7316 76.5429 35.1538L76.5767 35.1877ZM94.2808 69.5472C94.2195 69.3664 94.09 69.2168 93.92 69.13C93.92 69.0398 94.0328 68.9608 94.0779 68.8706C94.1899 68.6502 94.2113 68.3948 94.1376 68.1588C94.0639 67.9228 93.9008 67.725 93.6832 67.6076C93.4645 67.4961 93.2107 67.475 92.9766 67.5488C92.7424 67.6227 92.5467 67.7855 92.4315 68.0023C92.3413 68.1602 92.2511 68.3181 92.1496 68.4647C91.8102 69.0225 91.3614 69.5058 90.8302 69.8855C88.8794 71.3627 86.0828 71.3289 83.7937 70.6636C82.7901 70.3817 81.5384 69.6487 81.4031 68.6C81.2944 67.8532 81.2754 67.096 81.3467 66.3447C81.6519 65.2351 82.2475 64.2269 83.072 63.4241L83.275 63.1985C83.4678 62.9628 83.6916 62.7542 83.9403 62.5783C84.4245 62.1803 84.9846 61.8849 85.5866 61.71C86.4246 61.4341 87.3232 61.399 88.1802 61.6085C90.3002 62.1047 91.146 62.7362 91.4955 64.2698C91.5231 64.3894 91.5746 64.5022 91.6467 64.6015C91.7189 64.7008 91.8104 64.7845 91.9156 64.8477C92.0209 64.9108 92.1378 64.9521 92.2593 64.9691C92.3809 64.986 92.5047 64.9783 92.6232 64.9464C92.7433 64.9185 92.8567 64.8672 92.9569 64.7954C93.0571 64.7236 93.1421 64.6326 93.2071 64.5279C93.2721 64.4231 93.3157 64.3065 93.3354 64.1848C93.3552 64.0631 93.3508 63.9387 93.3223 63.8187C93.2735 63.6003 93.2095 63.3855 93.1306 63.176C96.1978 58.5864 95.8483 54.0646 95.3859 48.8548C95.307 48.088 95.2506 47.2986 95.183 46.498C94.8785 41.9874 94.8559 36.7776 97.1112 32.3798C99.0508 28.6022 103.618 25.129 108.23 26.1101C109.423 26.4247 110.579 26.8631 111.68 27.4181C112.346 27.7452 113.034 28.0609 113.722 28.3203C115.548 29.0307 118.232 29.5832 120.386 28.3203C121.432 27.6081 122.319 26.6865 122.991 25.6139C123.393 24.9957 123.853 24.4179 124.367 23.8886C126.622 21.7912 130.253 22.1746 132.542 23.5954C135.068 25.1628 136.692 29.6058 137.774 32.5377V32.6392C140.515 40.7695 142.928 49.1593 144.969 57.5603C145.487 59.669 146.164 61.9581 146.875 64.3262L147.709 67.1115C147.675 67.2561 147.675 67.4067 147.709 67.5513C148.419 70.7313 148.013 76.5725 147.382 81.0831C147.301 82.4263 146.852 83.7214 146.085 84.8269C145.807 85.1289 145.458 85.3574 145.07 85.4922C144.856 85.5827 144.626 85.6324 144.394 85.6388C144.208 85.658 144.021 85.6378 143.844 85.5795C143.668 85.5212 143.505 85.4261 143.368 85.3005C143.08 84.9787 142.875 84.5916 142.77 84.1729C142.724 84.0757 142.69 83.9735 142.668 83.8684C142.48 83.2258 142.199 82.6141 141.834 82.0529C141.276 81.3901 140.551 80.8881 139.735 80.5987C138.918 80.3093 138.039 80.243 137.188 80.4065C136.951 80.4065 136.726 80.4629 136.478 80.4967C135.913 80.5967 135.358 80.7476 134.82 80.9478C133.181 81.5364 131.695 82.4839 130.47 83.7209C129.245 84.9578 128.311 86.453 127.738 88.0971C127.569 88.6045 127.411 89.1345 127.276 89.6645C127.083 90.761 126.664 91.8054 126.047 92.7317C124.919 94.1751 122.664 94.5472 120.939 94.7277L120.251 94.7953C117.003 95.1223 116.011 95.2126 112.436 92.7881L112.165 92.5964C111.62 92.1807 111.097 91.7366 110.598 91.2658C104.926 85.9771 95.4085 72.6934 94.2808 69.5472ZM136.117 102.057C134.015 103.32 131.734 104.256 129.351 104.831C127.634 105.292 125.862 105.512 124.085 105.485C119.971 105.232 116.065 103.595 113 100.84C112.163 100.14 111.372 99.3864 110.632 98.5842C110.124 98.043 109.628 97.4566 109.177 96.9153C107.701 95.0749 106.349 93.1386 105.129 91.1192C101.938 85.9996 100.077 82.6167 98.1036 79.0646C101.915 84.3646 106.798 90.4088 110.113 93.2955C110.521 93.6589 110.95 93.9978 111.399 94.3104C111.5 94.3104 111.59 94.457 111.703 94.5134C113.28 95.7465 115.163 96.5262 117.15 96.7687C118.246 96.8093 119.343 96.7603 120.431 96.6221L121.13 96.5432C123.261 96.3515 125.911 95.8666 127.513 93.8707C128.291 92.7394 128.832 91.462 129.103 90.1156C129.204 89.6254 129.339 89.1431 129.509 88.6722C130.067 87.0936 131.019 85.6833 132.274 84.5745C133.529 83.4657 135.045 82.6948 136.681 82.3348H136.838C138.068 82.1092 139.635 82.2107 140.345 83.1692C140.601 83.5702 140.795 84.0074 140.921 84.466C141.015 84.8073 141.139 85.1394 141.293 85.4584C141.478 85.9218 141.754 86.3436 142.105 86.6988C142.426 86.9885 142.802 87.2107 143.211 87.3522C143.619 87.4936 144.052 87.5513 144.484 87.522H144.822C145.652 87.4237 146.435 87.0868 147.077 86.5522C147.232 86.418 147.379 86.2749 147.517 86.1237C148.556 84.7519 149.168 83.1047 149.276 81.3876C149.434 80.3388 149.716 78.0046 149.874 75.5012C150.557 78.5137 150.778 81.6127 150.528 84.6916C150.413 85.7741 150.178 86.8405 149.829 87.8715C149.635 88.4564 149.405 89.0288 149.141 89.5856C146.435 95.0885 140.921 99.0804 136.06 102.057H136.117Z" fill="#012466"/>
<path d="M150.404 84.6014C149.468 92.8558 142.24 98.2685 136.061 102.057C133.959 103.317 131.677 104.249 129.295 104.82C127.583 105.289 125.814 105.513 124.04 105.486C119.923 105.223 116.015 103.583 112.944 100.828C109.827 98.0019 107.164 94.7119 105.05 91.0741C101.87 85.9546 99.9982 82.5829 98.0361 79.0308C102.366 85.0525 108.106 92.0665 111.331 94.2654C113.913 96.0245 115.447 96.6222 117.071 96.7462C118.17 96.7966 119.272 96.7513 120.364 96.6109L121.052 96.532C123.194 96.3403 125.833 95.8441 127.434 93.8481C128.223 92.7225 128.764 91.4428 129.024 90.0931C129.132 89.6083 129.267 89.1301 129.43 88.6609C130 87.0557 130.974 85.6243 132.258 84.5044C133.541 83.3846 135.092 82.6141 136.76 82.2672C137.989 82.0416 139.568 82.1431 140.278 83.1129C140.523 83.5139 140.713 83.9464 140.842 84.3984C141.042 85.2394 141.454 86.0155 142.037 86.6537C142.359 86.9434 142.735 87.1663 143.143 87.3095C143.552 87.4527 143.984 87.5135 144.416 87.4882C144.985 87.4598 145.542 87.3186 146.055 87.0727C146.568 86.8268 147.027 86.4812 147.405 86.0561C148.44 84.6875 149.048 83.0439 149.153 81.3312C149.31 80.2825 149.592 77.9483 149.75 75.4336C150.431 78.4388 150.651 81.53 150.404 84.6014Z" fill="#012466"/>
<path d="M147.28 81.0612C147.21 82.4013 146.765 83.6948 145.994 84.7937C145.551 85.2736 144.943 85.5677 144.292 85.6169C144.108 85.6324 143.924 85.6105 143.749 85.5523C143.575 85.4941 143.414 85.401 143.277 85.2786C142.93 84.8557 142.686 84.3576 142.566 83.8239C142.383 83.1831 142.101 82.5744 141.732 82.0197C140.706 80.5988 138.71 80.0237 136.387 80.4522C134.393 80.8515 132.537 81.7634 131.002 83.0981C129.468 84.4328 128.308 86.1443 127.636 88.0639C127.467 88.5713 127.32 89.1013 127.185 89.6313C126.988 90.7286 126.566 91.773 125.945 92.6985C124.817 94.1306 122.562 94.5141 120.848 94.6945L120.149 94.7509C116.901 95.0892 115.909 95.1794 112.334 92.7436C107.316 89.3607 95.5657 73.0774 94.19 69.5478C94.1632 69.4582 94.1183 69.3749 94.0582 69.3032C93.9981 69.2314 93.924 69.1727 93.8404 69.1306L93.987 68.86C94.0725 68.6453 94.0755 68.4067 93.9956 68.1899C93.9157 67.9732 93.7584 67.7937 93.5541 67.6859C93.3497 67.5782 93.1128 67.5498 92.8887 67.6062C92.6647 67.6626 92.4695 67.8 92.3406 67.9917C92.2597 68.151 92.1693 68.3054 92.07 68.454C91.7275 69.0126 91.2793 69.4991 90.7506 69.8861C88.7885 71.3521 86.0032 71.3295 83.7141 70.653C82.7105 70.371 81.4588 69.6493 81.3122 68.5894C81.2025 67.8426 81.1836 67.0853 81.2558 66.334C81.5699 65.2224 82.1684 64.2118 82.9924 63.4021L83.1954 63.1766C83.3877 62.9444 83.6073 62.7361 83.8494 62.5564C84.3343 62.1619 84.8945 61.8702 85.4958 61.6994C86.3339 61.4241 87.2323 61.389 88.0894 61.5979C90.2207 62.0941 91.0551 62.7256 91.416 64.2479C91.439 64.37 91.4875 64.4858 91.5585 64.5878C91.6295 64.6898 91.7213 64.7755 91.8278 64.8394C91.9344 64.9034 92.0532 64.944 92.1766 64.9587C92.3 64.9733 92.4251 64.9617 92.5436 64.9245C92.6653 64.8995 92.7805 64.8499 92.8823 64.7788C92.9842 64.7077 93.0704 64.6167 93.1359 64.5111C93.2013 64.4056 93.2445 64.2878 93.2629 64.165C93.2813 64.0422 93.2744 63.9169 93.2428 63.7968C93.194 63.5784 93.1299 63.3636 93.0511 63.1541C96.107 58.5645 95.7687 54.0314 95.3064 48.8216C95.2387 48.0548 95.1823 47.2767 95.1147 46.4648C94.7989 41.9542 94.7877 36.7445 97.0317 32.3579C98.9825 28.5803 103.538 25.1071 108.162 26.0882C109.353 26.4025 110.509 26.837 111.612 27.3849C112.272 27.7225 112.949 28.0236 113.642 28.2871C115.469 29.0088 118.153 29.5613 120.318 28.2307C121.364 27.5185 122.251 26.597 122.923 25.5243C123.324 24.9091 123.784 24.335 124.298 23.8103C126.554 21.7016 130.173 22.0963 132.474 23.5171C135 25.0845 136.612 29.5275 137.695 32.4481V32.5383C140.424 40.68 142.848 49.0697 144.889 57.4707C145.397 59.5681 146.085 61.8573 146.795 64.2366C147.054 65.15 147.347 66.086 147.629 67.0219C147.584 67.1651 147.584 67.3186 147.629 67.4617C148.407 70.7093 147.934 76.607 147.28 81.0612Z" fill="white"/>
<path d="M78.358 23.3367C78.3355 23.4294 78.3355 23.526 78.358 23.6187C76.9653 26.0346 75.932 28.6405 75.2907 31.3544L75.2005 31.422C73.1595 33.7788 71.2538 35.7973 68.7729 36.3498C67.3829 36.5903 65.953 36.4246 64.6549 35.8725C63.3567 35.3205 62.2455 34.4055 61.4545 33.2375C60.6524 32.0098 60.1028 30.6347 59.8375 29.1923C59.5723 27.75 59.5968 26.2693 59.9096 24.8365C60.5617 21.8505 61.8333 19.0346 63.6421 16.5708C65.841 13.3909 67.9159 11.7219 70.2163 11.3385C71.6079 11.1749 73.0171 11.4192 74.2724 12.0419C75.5277 12.6645 76.5749 13.6386 77.2867 14.8455C78.7318 17.4298 79.1159 20.4745 78.358 23.3367Z" fill="#EDBB44"/>
<path d="M133.32 21.859C130.355 20.1112 125.934 19.7391 123.047 22.4792C122.443 23.0859 121.896 23.7464 121.412 24.4526C120.894 25.3367 120.199 26.1045 119.371 26.7079C117.725 27.689 115.503 27.0688 114.331 26.6065C113.677 26.3584 113.034 26.0652 112.402 25.772C111.179 25.1413 109.884 24.6605 108.546 24.3399C102.986 23.122 97.7091 27.0575 95.3974 31.5681C92.9504 36.3719 92.9391 41.8974 93.2774 46.6787C93.3451 47.4793 93.3902 48.2687 93.4691 49.0467C93.8638 53.8054 94.157 57.662 91.9242 61.4509C90.9628 60.6157 89.7942 60.0548 88.5413 59.8271C87.1679 59.5164 85.7324 59.6304 84.4253 60.1541C78.4375 50.9299 75.8326 42.7544 76.5318 35.1766C77.3662 25.9073 83.6134 17.1342 92.4768 12.6236C100.754 8.50764 111.275 8.11296 120.668 11.6087C125.618 13.458 129.171 16.0065 131.223 19.2203C131.282 19.3191 131.36 19.4049 131.453 19.4727C131.546 19.5406 131.652 19.5889 131.764 19.615C132.346 20.3176 132.866 21.0683 133.32 21.859Z" fill="#EDBB44"/>
</svg>
