<svg width="20" height="21" viewBox="0 0 20 21" fill="none" xmlns="http://www.w3.org/2000/svg">
<path d="M15.9174 3.61914H4.23914C3.86724 3.61997 3.51082 3.76808 3.24785 4.03105C2.98487 4.29402 2.83677 4.65045 2.83594 5.02234V16.0971C2.83677 16.469 2.98488 16.8254 3.24785 17.0884C3.51082 17.3514 3.86725 17.4995 4.23914 17.5003H15.9174C16.2893 17.4995 16.6457 17.3514 16.9087 17.0884C17.1717 16.8254 17.3198 16.469 17.3206 16.0971V5.02234C17.3198 4.65045 17.1717 4.29402 16.9087 4.03105C16.6457 3.76808 16.2893 3.61997 15.9174 3.61914ZM16.7171 16.0971C16.7167 16.3091 16.6324 16.5123 16.4825 16.6621C16.3326 16.812 16.1294 16.8964 15.9174 16.8968H4.23914C4.02717 16.8964 3.82398 16.812 3.67409 16.6621C3.5242 16.5123 3.43983 16.3091 3.43947 16.0971V5.02234C3.43983 4.81037 3.5242 4.60718 3.67409 4.45729C3.82398 4.3074 4.02717 4.22303 4.23914 4.22267H15.9174C16.1294 4.22303 16.3326 4.3074 16.4825 4.45729C16.6324 4.60718 16.7167 4.81037 16.7171 5.02234V16.0971Z" fill="#1974EE"/>
<path d="M10.0752 15.3731C10.0356 15.3732 9.99632 15.3654 9.95969 15.3502C9.92307 15.3351 9.8898 15.3128 9.86177 15.2848C9.83375 15.2568 9.81152 15.2235 9.79636 15.1869C9.7812 15.1503 9.77341 15.111 9.77344 15.0714V5.3545C9.77344 5.27447 9.80523 5.19771 9.86182 5.14112C9.91841 5.08453 9.99517 5.05273 10.0752 5.05273C10.1552 5.05273 10.232 5.08453 10.2886 5.14112C10.3452 5.19771 10.377 5.27447 10.377 5.3545V15.0714C10.377 15.111 10.3692 15.1503 10.354 15.1869C10.3389 15.2235 10.3167 15.2568 10.2886 15.2848C10.2606 15.3128 10.2273 15.3351 10.1907 15.3502C10.1541 15.3654 10.1148 15.3732 10.0752 15.3731Z" fill="#1974EE"/>
<path d="M6.60848 8.4318C7.35011 8.4318 7.95133 7.83058 7.95133 7.08895C7.95133 6.34731 7.35011 5.74609 6.60848 5.74609C5.86684 5.74609 5.26562 6.34731 5.26562 7.08895C5.26562 7.83058 5.86684 8.4318 6.60848 8.4318Z" fill="#1974EE"/>
<path d="M9.17198 9.81123V10.5596C9.17128 10.7995 9.07567 11.0293 8.90605 11.199C8.73642 11.3686 8.50657 11.4642 8.26669 11.4649V13.2755C8.26598 13.5154 8.17038 13.7452 8.00076 13.9149C7.83113 14.0845 7.60128 14.1801 7.36139 14.1808H6.15434C5.91445 14.1801 5.6846 14.0845 5.51497 13.9149C5.34535 13.7452 5.24975 13.5154 5.24904 13.2755V11.4649C5.00916 11.4642 4.7793 11.3686 4.60968 11.199C4.44006 11.0293 4.34445 10.7995 4.34375 10.5596V9.81123C4.34416 9.52964 4.45621 9.25971 4.65532 9.06059C4.85443 8.86148 5.12437 8.74944 5.40596 8.74902H8.10977C8.39136 8.74944 8.66129 8.86148 8.86041 9.06059C9.05952 9.25971 9.17157 9.52964 9.17198 9.81123ZM15.8108 9.81123V10.5596C15.8101 10.7995 15.7145 11.0293 15.5449 11.199C15.3752 11.3686 15.1454 11.4642 14.9055 11.4649H14.8964L15.4064 12.9918C15.4515 13.128 15.4635 13.2728 15.4414 13.4145C15.4194 13.5562 15.3639 13.6906 15.2797 13.8066C15.1969 13.923 15.0873 14.0177 14.9602 14.0829C14.8331 14.148 14.6922 14.1816 14.5494 14.1808H12.4642C12.321 14.1811 12.1798 14.1472 12.0522 14.0821C11.9246 14.017 11.8144 13.9224 11.7306 13.8062C11.6469 13.69 11.592 13.5555 11.5706 13.4139C11.5491 13.2723 11.5617 13.1276 11.6072 12.9918L12.1142 11.4619C11.888 11.4427 11.6773 11.3393 11.5237 11.1723C11.37 11.0052 11.2846 10.7866 11.2843 10.5596V9.81123C11.2847 9.52964 11.3968 9.25971 11.5959 9.06059C11.795 8.86148 12.0649 8.74944 12.3465 8.74902H14.7486C15.0302 8.74944 15.3001 8.86148 15.4992 9.06059C15.6983 9.25971 15.8104 9.52964 15.8108 9.81123Z" fill="#1974EE"/>
<path d="M13.5538 8.4318C14.2954 8.4318 14.8966 7.83058 14.8966 7.08895C14.8966 6.34731 14.2954 5.74609 13.5538 5.74609C12.8122 5.74609 12.2109 6.34731 12.2109 7.08895C12.2109 7.83058 12.8122 8.4318 13.5538 8.4318Z" fill="#1974EE"/>
</svg>
