<svg width="12" height="13" viewBox="0 0 12 13" fill="none" xmlns="http://www.w3.org/2000/svg">
<path id="Star 5" d="M5.06802 1.39608C5.39863 0.546086 6.60137 0.546088 6.93198 1.39608L7.79355 3.61113C7.93556 3.97623 8.27766 4.22478 8.66877 4.24702L11.0416 4.38193C11.9522 4.4337 12.3239 5.57757 11.6176 6.15466L9.77724 7.65855C9.4739 7.90643 9.34323 8.30859 9.44294 8.68743L10.0479 10.9859C10.28 11.8679 9.307 12.5748 8.53991 12.0815L6.54091 10.7959C6.21143 10.584 5.78857 10.584 5.45909 10.7959L3.46009 12.0815C2.693 12.5748 1.71997 11.8678 1.95211 10.9859L2.55706 8.68743C2.65677 8.30859 2.5261 7.90643 2.22276 7.65855L0.382358 6.15466C-0.323869 5.57757 0.0477982 4.4337 0.958356 4.38193L3.33123 4.24702C3.72234 4.22478 4.06444 3.97622 4.20645 3.61113L5.06802 1.39608Z" fill="#F18322"/>
</svg>
